<svg xmlns="http://www.w3.org/2000/svg" viewBox="0 0 555.25 256.04"><defs><style>.a,.f{fill:#94c942;}.a,.e{opacity:0.1;isolation:isolate;}.b{fill:#472354;}.c{opacity:0.9;}.d{fill:#fff;}.e{fill:#010101;}.g{fill:#472254;}</style></defs><title>Asset 1</title><path class="a" d="M195.58,210.24h0A92.42,92.42,0,0,1,261,205.63L376.07,240c66.26,19.78,128-36.52,107.21-97.77h0C454.11,56.31,366.36-2,269.3.05L226.87,1C149.32,2.59,84.41,53.52,70.51,123.64h0C57.61,188.6,132.06,240.13,195.58,210.24Z"/><path class="b" d="M554.68,256H.45a.51.51,0,0,1-.45-.56A.52.52,0,0,1,.45,255H554.68a.52.52,0,0,1,.57.45.51.51,0,0,1-.45.56A.24.24,0,0,1,554.68,256Z"/><g class="c"><path class="d" d="M396,112.47l41,36.31a9.42,9.42,0,0,1,3.19,7.07v18.58a8.34,8.34,0,0,1-1.09,4.14l-2.29,4.09h10.55a1.74,1.74,0,0,1,1.74,1.75h0v6L446.48,193a7.52,7.52,0,0,1-5.14,2.06H430.82l-6.23,11.29H128.72a6.7,6.7,0,0,1-4.7-1.92l-6.4-6.25a7.43,7.43,0,0,1-2.24-5.33h-3.29a7.69,7.69,0,0,1-5.18-2l-3.1-2.81V182.6A1.61,1.61,0,0,1,105.4,181h8L112,162.83a2.78,2.78,0,0,1,2.35-3l83.4-12.58a11.91,11.91,0,0,0,6.07-2.82L245.51,108a13.45,13.45,0,0,1,9-3.32l124.2,1.15A26.44,26.44,0,0,1,396,112.47Z"/><path class="b" d="M424.59,206.81H128.72a7.19,7.19,0,0,1-5.09-2.07l-6.4-6.25a7.9,7.9,0,0,1-2.34-5.15h-2.8a8.16,8.16,0,0,1-5.51-2.18l-3.1-2.82a.48.48,0,0,1-.17-.37v-5.39a2.12,2.12,0,0,1,2.11-2.11h7.48l-1.45-17.6a3.29,3.29,0,0,1,2.78-3.5l83.45-12.58a11.41,11.41,0,0,0,5.81-2.69l41.72-36.49a14,14,0,0,1,9.31-3.44l124.17,1.17a27,27,0,0,1,17.64,6.77l41,36.31a9.93,9.93,0,0,1,3.36,7.44v18.57a9,9,0,0,1-1.15,4.36l-1.87,3.35h9.68a2.25,2.25,0,0,1,2.25,2.25v6a.52.52,0,0,1-.16.37l-2.65,2.53a8,8,0,0,1-5.49,2.18H431.13L425,206.57A.51.51,0,0,1,424.59,206.81ZM104.32,187.76l2.91,2.67a7.21,7.21,0,0,0,4.84,1.87h3.28a.5.5,0,0,1,.51.49h0a6.94,6.94,0,0,0,2.09,5l6.4,6.25a6.2,6.2,0,0,0,4.36,1.78H424.27l6.14-11.06a.51.51,0,0,1,.43-.27h10.48a7,7,0,0,0,4.8-1.91l2.49-2.38v-5.75a1.25,1.25,0,0,0-1.24-1.24H436.82a.48.48,0,0,1-.43-.25.5.5,0,0,1,0-.5l2.29-4.1a7.93,7.93,0,0,0,1-3.89v-18.6a8.91,8.91,0,0,0-3-6.69l-41-36.31h0a25.86,25.86,0,0,0-17-6.54l-124.2-1.15a12.81,12.81,0,0,0-8.64,3.2l-41.72,36.47a12.27,12.27,0,0,1-6.33,2.91L114.4,160.39a2.27,2.27,0,0,0-1.92,2.4L113.94,181a.47.47,0,0,1-.14.37.48.48,0,0,1-.37.17h-8a1.1,1.1,0,0,0-1.1,1.1Z"/><path class="b" d="M435.69,152.93a.51.51,0,0,1-.34-.13l-45.74-40.59a.51.51,0,0,1,.52-.88.57.57,0,0,1,.16.15L436,152.07a.52.52,0,0,1,0,.72h0A.44.44,0,0,1,435.69,152.93Z"/><path class="b" d="M440.22,175.2h-.29a3.71,3.71,0,0,1-3.14-1.74l-.09-.16a7.38,7.38,0,0,1-1.11-3.88V157.78a3,3,0,0,1,3-3h1.62a.52.52,0,0,1,.51.49h0v19.38a.52.52,0,0,1-.48.54Zm-1.62-19.38a2,2,0,0,0-2,2v11.64a6.33,6.33,0,0,0,1,3.35l.09.15a2.68,2.68,0,0,0,2.07,1.26V155.82Z"/><path class="b" d="M440.22,169.34h-4.13a.51.51,0,0,1-.5-.5h0v-7.41a.5.5,0,0,1,.5-.5h4.13a.5.5,0,0,1,.51.49h0v7.39a.51.51,0,0,1-.49.53Zm-3.64-1h3.11V162h-3.11Z"/><path class="e" d="M383.86,115.29l27.78,32a15.14,15.14,0,0,0,11.4,5.19h8.27l-7.8-2.38a19.91,19.91,0,0,1-10-4.82S383.86,115.29,383.86,115.29Z"/><path class="b" d="M211.6,202.14a.51.51,0,0,1,0-1s34.51-.08,69-.12c54.2-.07,66.08,0,68.79.13.37-12,8.55-21.9,8.63-22a.5.5,0,0,1,.71-.07h0a.51.51,0,0,1,.07.72c-.09.1-8.25,10-8.4,21.82a.53.53,0,0,1-.51.51h-.12c-2.59-.24-91.4-.09-138.19,0Z"/><path class="b" d="M426.08,197.65a.52.52,0,0,1-.5-.45c0-.27-3.84-26.95-33-30.09a.49.49,0,0,1-.45-.54h0a.51.51,0,0,1,.56-.45c15.64,1.68,24,10,28.28,16.73a38.31,38.31,0,0,1,5.58,14.26.51.51,0,0,1-.44.57Z"/><path class="f" d="M447.39,182.68H420.11s3.42,4.13,5.5,12.14c0,.11,10.57.05,15.81,0a7.47,7.47,0,0,0,5-2l1.79-1.64a2.82,2.82,0,0,0,.91-2.07V184.4A1.74,1.74,0,0,0,447.39,182.68Z"/><path class="b" d="M429.68,195.39c-4.47,0-4.47,0-4.56-.46-2-7.77-5.36-11.89-5.4-11.93a.5.5,0,0,1,.39-.82h27.28a2.23,2.23,0,0,1,2.25,2.21v4.77a3.3,3.3,0,0,1-1.08,2.44l-1.79,1.65a8,8,0,0,1-5.35,2.1l-9.86,0Zm-3.64-1c1,0,4.7.05,15.41,0a7,7,0,0,0,4.67-1.84l1.79-1.64a2.29,2.29,0,0,0,.73-1.7v-4.74a1.25,1.25,0,0,0-1.24-1.24H421.11A36.35,36.35,0,0,1,426,194.35Z"/><path class="b" d="M449.13,190.9H424.21a.51.51,0,0,1-.36-.15.55.55,0,0,1-.13-.25,20.15,20.15,0,0,0-2.36-5,.52.52,0,0,1,0-.51.5.5,0,0,1,.44-.26h27.34a.5.5,0,0,1,.51.5h0v5.21A.51.51,0,0,1,449.13,190.9Zm-24.54-1h24v-4.16H422.68A22,22,0,0,1,424.59,189.89Z"/><path class="b" d="M134.34,199.09h-.1a.51.51,0,0,1-.4-.59c.06-.27,5.82-27.22,31.09-32.05a.51.51,0,0,1,.59.4.5.5,0,0,1-.4.59h0c-24.61,4.71-30.23,31-30.29,31.27A.49.49,0,0,1,134.34,199.09Z"/><path class="f" d="M142.4,181h-37a1.61,1.61,0,0,0-1.61,1.6V188l3.1,2.81a7.69,7.69,0,0,0,5.18,2h24.15A47.87,47.87,0,0,1,142.4,181Z"/><path class="b" d="M136.24,193.34H112.09a8.16,8.16,0,0,1-5.51-2.18l-3.1-2.82a.48.48,0,0,1-.17-.37v-5.39a2.12,2.12,0,0,1,2.11-2.11h37a.5.5,0,0,1,.51.5.52.52,0,0,1-.09.29,48.87,48.87,0,0,0-6.1,11.64.55.55,0,0,1-.49.37Zm-31.92-5.55,2.91,2.67a7.21,7.21,0,0,0,4.84,1.87h23.79a49.1,49.1,0,0,1,5.59-10.79h-36a1.11,1.11,0,0,0-1.1,1.09Z"/><path class="b" d="M138.2,188.49H103.81a.51.51,0,0,1-.5-.5h0v-4.49a.51.51,0,0,1,.5-.51H140.9a.51.51,0,0,1,.4.55.58.58,0,0,1-.09.25,40.36,40.36,0,0,0-2.55,4.36A.51.51,0,0,1,138.2,188.49Zm-33.88-1h33.56a28.93,28.93,0,0,1,1.45-2.55l.57-.94H104.32Z"/><path class="b" d="M115.38,165.7a.51.51,0,0,1,0-1l317.77-3.05a.49.49,0,0,1,.51.45v0a.52.52,0,0,1-.5.52l-317.78,3Z"/><path class="b" d="M113.31,179.39a2.36,2.36,0,0,1-2.38-2l-1.56-13.09a2,2,0,0,1,1.58-2.18l.89-.18a.52.52,0,0,1,.6.42.06.06,0,0,0,0,0l1.34,16.5a.49.49,0,0,1-.14.38A.44.44,0,0,1,113.31,179.39ZM111.51,163l-.34.07a1,1,0,0,0-.77,1.06L112,177.2a1.38,1.38,0,0,0,.8,1.08Z"/><path class="e" d="M131.09,206.29,120,195.61a3.92,3.92,0,0,1-1.19-2.82h-3.43a7.46,7.46,0,0,0,2.24,5.33l6.4,6.25a6.74,6.74,0,0,0,4.71,1.92Z"/><path class="b" d="M131.09,206.8h-2.36a7.23,7.23,0,0,1-5.09-2.06l-6.4-6.26a8,8,0,0,1-2.39-5.69.5.5,0,0,1,.5-.5h3.42a.5.5,0,0,1,.51.5h0a3.45,3.45,0,0,0,1,2.46l11.09,10.68a.51.51,0,0,1-.35.87Zm-15.18-13.46A7,7,0,0,0,118,197.8l6.4,6.25a6.24,6.24,0,0,0,4.36,1.78h1.12L119.67,196a4.41,4.41,0,0,1-1.33-2.67Z"/><path class="b" d="M382,148.16H323.82a1.36,1.36,0,0,1-1.33-1,19.34,19.34,0,0,1-.34-7.11l3.69-26.91a2.51,2.51,0,0,1,2.49-2.18h0l38.37.34a8.63,8.63,0,0,1,6.55,3.11l18.31,22a4.82,4.82,0,0,1-.12,6.27h0l-2.14,2.36A9.81,9.81,0,0,1,382,148.16Zm-53.7-36.28a1.53,1.53,0,0,0-1.49,1.31l-3.69,26.91a18.36,18.36,0,0,0,.32,6.73.35.35,0,0,0,.35.28H382a8.86,8.86,0,0,0,6.55-2.91l2.13-2.36a3.79,3.79,0,0,0,.1-4.94l-18.32-22a7.55,7.55,0,0,0-5.81-2.75l-38.3-.32Z"/><path class="b" d="M379.27,150.43H323.58a.5.5,0,0,1-.44-.57.51.51,0,0,1,.44-.44h55.69a10.91,10.91,0,0,0,8.23-3.75l3.21-3.79a.51.51,0,0,1,.77.66h0l-3.26,3.79A11.9,11.9,0,0,1,379.27,150.43Z"/><path class="b" d="M314,148.16H226.56a2.81,2.81,0,0,1-2.54-1.6,3.13,3.13,0,0,1,.57-3.56l30-31a5.85,5.85,0,0,1,4.21-1.78h.06l59.71.58a1.68,1.68,0,0,1,1.64,1.7,1.79,1.79,0,0,1,0,.23h0l-4.82,30a17.31,17.31,0,0,0-.16,4.07,1.31,1.31,0,0,1-.35,1A1.28,1.28,0,0,1,314,148.16Zm-55.1-36.93a4.91,4.91,0,0,0-3.49,1.45l-30.05,31a2.13,2.13,0,0,0-.38,2.42,1.8,1.8,0,0,0,1.63,1H314a.28.28,0,0,0,.22-.09.3.3,0,0,0,.08-.23,18.28,18.28,0,0,1,.18-4.31l4.81-30a.67.67,0,0,0-.14-.53.69.69,0,0,0-.5-.23l-59.7-.58Z"/><path class="b" d="M394.11,137.83a.49.49,0,0,1-.39-.19l-1.05-1.3a.5.5,0,0,1,.07-.71.52.52,0,0,1,.71.07h0l1.05,1.3a.51.51,0,0,1-.06.71h0A.48.48,0,0,1,394.11,137.83Z"/><path class="b" d="M390.85,133.81a.49.49,0,0,1-.39-.19L375,114.52a5.9,5.9,0,0,0-4.57-2.19l-119.79-1.09a.52.52,0,0,1-.5-.51.5.5,0,0,1,.5-.5h0l119.79,1.09a6.92,6.92,0,0,1,5.35,2.59L391.24,133a.48.48,0,0,1,0,.69l0,0A.42.42,0,0,1,390.85,133.81Z"/><path class="b" d="M319.36,200.2h-.06a.5.5,0,0,1-.43-.57h0l1.37-10.38-.8-39.28-.36-1.05a17.57,17.57,0,0,1-.73-8.63l4.77-29a.5.5,0,0,1,.58-.42.5.5,0,0,1,.41.58l-4.76,29a16.52,16.52,0,0,0,.73,8.13l.39,1.13a.43.43,0,0,1,0,.16l.8,39.36v.07l-1.41,10.45A.5.5,0,0,1,319.36,200.2Z"/><path class="b" d="M304.35,150.43H218.84a.51.51,0,0,1,0-1h85.51a.51.51,0,0,1,.57.44.52.52,0,0,1-.44.57Z"/><path class="b" d="M309.28,150.43h-1.6a.52.52,0,0,1-.45-.57.51.51,0,0,1,.45-.44h1.6a.51.51,0,0,1,.13,1Z"/><path class="b" d="M315.71,150.43h-1.84a.51.51,0,0,1,0-1h1.84a.51.51,0,0,1,.12,1Z"/><path class="b" d="M228.4,135.46a.51.51,0,0,1-.49-.53.47.47,0,0,1,.14-.33l21-21.35a.5.5,0,0,1,.71,0v0a.5.5,0,0,1,0,.71l0,0-21,21.32A.52.52,0,0,1,228.4,135.46Z"/><path class="b" d="M224.53,139.4a.51.51,0,0,1-.5-.53.58.58,0,0,1,.14-.33l1.14-1.2a.5.5,0,0,1,.71,0l0,0a.5.5,0,0,1,0,.71l0,0-1.17,1.19A.49.49,0,0,1,224.53,139.4Z"/><path class="b" d="M221.89,150.43a.52.52,0,0,1-.44-.25l-1.72-3a4,4,0,0,1,.59-4.75l.88-.89a.52.52,0,1,1,.73.73l-.89.85a2.9,2.9,0,0,0-.44,3.52l1.72,3a.49.49,0,0,1-.16.68h0A.46.46,0,0,1,221.89,150.43Z"/><path class="b" d="M392,112.34H376.54a.5.5,0,0,1-.44-.56.51.51,0,0,1,.44-.45H392a.52.52,0,0,1,.57.45.51.51,0,0,1-.45.56Z"/><path class="b" d="M209,145.54h-5.82a.5.5,0,0,1-.32-.88l42.73-37.37a.52.52,0,0,1,.39-.13.5.5,0,0,1,.35.21l1.25,1.69a2.45,2.45,0,0,1-.26,3.18l-30.89,30.28A10.53,10.53,0,0,1,209,145.54Zm-4.49-1H209a9.58,9.58,0,0,0,6.7-2.73l30.9-30.28a1.46,1.46,0,0,0,.15-1.86l-.93-1.25Z"/><path class="b" d="M216.75,200.61a.51.51,0,0,1-.51-.49l-1.07-51.52a.55.55,0,0,1,.13-.34l5-5.76a.51.51,0,0,1,.7.11.5.5,0,0,1,0,.55l-4.88,5.61,1.07,51.33a.52.52,0,0,1-.5.51Z"/><path class="b" d="M214.34,186.88H209a.51.51,0,0,1,0-1h5.32a.51.51,0,0,1,.56.45.5.5,0,0,1-.44.56Z"/><path class="b" d="M317.8,186.88h-99a.51.51,0,0,1,0-1h99a.52.52,0,0,1,.57.45.51.51,0,0,1-.45.56Z"/><path class="b" d="M350.57,186.88H325a.51.51,0,0,1,0-1h25.54a.51.51,0,1,1,.12,1Z"/><path class="b" d="M114.32,160.39a.51.51,0,0,1-.48-.54.49.49,0,0,1,.42-.47l97.29-11.26a.5.5,0,0,1,.56.44.49.49,0,0,1-.43.56h0l-97.29,11.26Z"/><path class="b" d="M231.86,148.16h-5.39a4.57,4.57,0,0,1-2.37-1.49.22.22,0,0,1,0-.08,3.17,3.17,0,0,1,.56-3.58l6.89-7.1a.48.48,0,0,1,.55-.12.5.5,0,0,1,.32.47v11.41A.52.52,0,0,1,231.86,148.16Zm-5.22-1h4.72v-9.66l-6.05,6.21a2.16,2.16,0,0,0-.4,2.37,3.49,3.49,0,0,0,1.71,1.08Z"/><path class="b" d="M233.67,149.13h-4.44a.54.54,0,0,1-.45-.27l-.67-1.28H225.7a.5.5,0,0,1-.5-.5h0v-3.48a.5.5,0,0,1,.37-.49l2-.52.6-2.12a.45.45,0,0,1,.2-.28l1.29-.86a.46.46,0,0,1,.27-.09h3.7a.51.51,0,0,1,.51.49h0v8.89A.51.51,0,0,1,233.67,149.13Zm-4.14-1h3.64v-7.87h-3l-1,.67-.61,2.22a.49.49,0,0,1-.36.35l-1.94.5v2.59h2.18a.49.49,0,0,1,.45.26Z"/><path class="b" d="M312.06,158.5H295.62a2.48,2.48,0,0,1,0-5h16.44a2.48,2.48,0,1,1,.26,5Zm-16.44-3.95a1.46,1.46,0,1,0,0,2.91h16.44a1.46,1.46,0,0,0,0-2.91Z"/><path class="b" d="M436.09,206.26H424.84a.48.48,0,0,1-.43-.25.5.5,0,0,1,0-.5l2.29-4.12a.47.47,0,0,1,.43-.25h9a2.57,2.57,0,1,1,.67,5.09,2.5,2.5,0,0,1-.67,0Zm-10.39-1h10.39a1.55,1.55,0,1,0,.21-3.1.74.74,0,0,0-.21,0h-8.67Z"/><path class="g" d="M209,206.29V204.5a35.69,35.69,0,0,0-35.69-35.69h0a35.69,35.69,0,0,0-35.7,35.69h0v1.79a1.19,1.19,0,0,0,1.18,1.18h.38a1.19,1.19,0,0,0,1.18-1.18v-1.92a33.15,33.15,0,0,1,33.15-33.15h0a33.15,33.15,0,0,1,33.15,33.15h0v1.92a1.17,1.17,0,0,0,1.17,1.18h0a1.17,1.17,0,0,0,1.18-1.16Z"/><path class="g" d="M207.86,208.26a2,2,0,0,1-2-2v-1.92a32.36,32.36,0,1,0-64.72,0v1.92a2,2,0,0,1-2,2h-.38a2,2,0,0,1-2-2V204.5a36.49,36.49,0,0,1,73,0v1.79A2,2,0,0,1,207.86,208.26Zm-34.33-37.82a34,34,0,0,1,33.94,33.94v1.93a.39.39,0,0,0,.78,0h0v-1.79a34.91,34.91,0,0,0-69.82,0v1.79a.39.39,0,0,0,.39.39h.38a.4.4,0,0,0,.39-.39h0v-1.93a34,34,0,0,1,33.93-33.95Z"/><path class="e" d="M140.37,206.29v-1.92a33.15,33.15,0,0,1,33.15-33.15h0a33.15,33.15,0,0,1,33.15,33.15h0v1.92Z"/><path class="g" d="M206.67,207.09h-66.3a.8.8,0,0,1-.78-.8v-1.92a33.94,33.94,0,0,1,67.88,0v1.92A.8.8,0,0,1,206.67,207.09Zm-65.5-1.58h64.72v-1.14a32.36,32.36,0,1,0-64.72,0h0Z"/><path class="e" d="M355.69,206.29v-1.92a33.15,33.15,0,0,1,33.15-33.15h0A33.15,33.15,0,0,1,422,204.37h0v1.92Z"/><path class="g" d="M422,207.09H355.69a.8.8,0,0,1-.79-.8v-1.92a33.94,33.94,0,0,1,67.88,0v1.92A.8.8,0,0,1,422,207.09Zm-65.5-1.58h64.73v-1.14a32.37,32.37,0,1,0-64.73,0h0Z"/><circle class="d" cx="172.96" cy="204.28" r="26.73"/><path class="b" d="M173,231.52a27.25,27.25,0,1,1,27.25-27.27A27.24,27.24,0,0,1,173,231.52Zm0-53.45a26.23,26.23,0,1,0,26.24,26.22v0A26.26,26.26,0,0,0,173,178.07Z"/><path class="b" d="M196.26,199.09a.49.49,0,0,1-.48-.38,13.61,13.61,0,0,0-.42-1.46.53.53,0,0,1,.33-.64.5.5,0,0,1,.63.31v0c.16.48.3,1,.44,1.54a.51.51,0,0,1-.37.61Z"/><path class="b" d="M173,228.77a24.5,24.5,0,0,1,0-49,.51.51,0,0,1,.56.45.49.49,0,0,1-.44.56.24.24,0,0,1-.12,0,23.49,23.49,0,1,0,23.49,23.48v0c0-.73,0-1.51-.12-2.35a.51.51,0,0,1,1-.09c.08.86.12,1.66.12,2.44A24.53,24.53,0,0,1,173,228.77Z"/><path class="b" d="M193.47,192.34a.51.51,0,0,1-.43-.24,21.87,21.87,0,0,0-2-2.84,23.54,23.54,0,0,0-12.36-7.78c-.77-.18-1.5-.33-2.23-.44a.49.49,0,0,1-.42-.57.51.51,0,0,1,.57-.43c.73.11,1.52.27,2.32.46a24.64,24.64,0,0,1,12.92,8.11,25.38,25.38,0,0,1,2.12,3,.51.51,0,0,1-.14.71l0,0A.57.57,0,0,1,193.47,192.34Z"/><circle class="f" cx="172.96" cy="204.28" r="17.9"/><path class="b" d="M173,222.69a18.41,18.41,0,1,1,18.41-18.44A18.41,18.41,0,0,1,173,222.69Zm0-35.8a17.4,17.4,0,1,0,17.4,17.39v0A17.41,17.41,0,0,0,173,186.89Z"/><circle class="d" cx="172.96" cy="204.28" r="13.72"/><path class="b" d="M173,218.51a14.23,14.23,0,1,1,14.24-14.26A14.24,14.24,0,0,1,173,218.51Zm0-27.45a13.23,13.23,0,1,0,13.23,13.22v0A13.24,13.24,0,0,0,173,191.06Z"/><circle class="e" cx="172.96" cy="204.28" r="7.2"/><path class="b" d="M173,212a7.71,7.71,0,1,1,7.71-7.71A7.71,7.71,0,0,1,173,212Zm0-14.4a6.7,6.7,0,1,0,6.7,6.7h0a6.7,6.7,0,0,0-6.7-6.69Z"/><circle class="d" cx="388.62" cy="204.28" r="26.73"/><path class="b" d="M388.62,231.52a27.25,27.25,0,1,1,27.24-27.27A27.25,27.25,0,0,1,388.62,231.52Zm0-53.47a26.24,26.24,0,1,0,26.23,26.24v0a26.25,26.25,0,0,0-26.23-26.18Z"/><path class="b" d="M411.93,199.09a.51.51,0,0,1-.49-.38,15.09,15.09,0,0,0-.42-1.46.53.53,0,0,1,.33-.64.5.5,0,0,1,.63.31v0c.16.48.3,1,.44,1.54a.51.51,0,0,1-.37.61Z"/><path class="b" d="M388.62,228.77a24.5,24.5,0,0,1,0-49,.51.51,0,0,1,.56.45.49.49,0,0,1-.44.56.24.24,0,0,1-.12,0,23.49,23.49,0,1,0,23.48,23.49v0c0-.73,0-1.52-.12-2.35a.52.52,0,0,1,.5-.52.53.53,0,0,1,.52.43c.07.86.11,1.66.11,2.44A24.52,24.52,0,0,1,388.62,228.77Z"/><path class="b" d="M409.14,192.34a.52.52,0,0,1-.44-.24,22.8,22.8,0,0,0-2-2.84,23.61,23.61,0,0,0-12.37-7.78c-.77-.18-1.5-.33-2.23-.44a.49.49,0,0,1-.42-.57.51.51,0,0,1,.57-.43h0c.73.11,1.52.27,2.32.46a24.71,24.71,0,0,1,12.93,8.11,26.53,26.53,0,0,1,2.11,3,.5.5,0,0,1-.14.71l0,0A.53.53,0,0,1,409.14,192.34Z"/><circle class="f" cx="388.62" cy="204.28" r="17.9"/><path class="b" d="M388.62,222.69A18.41,18.41,0,1,1,407,204.25,18.41,18.41,0,0,1,388.62,222.69Zm0-35.8A17.4,17.4,0,1,0,406,204.29v0A17.4,17.4,0,0,0,388.62,186.89Z"/><circle class="d" cx="388.62" cy="204.28" r="13.72"/><path class="b" d="M388.62,218.51a14.23,14.23,0,1,1,14.23-14.26A14.24,14.24,0,0,1,388.62,218.51Zm0-27.45a13.23,13.23,0,1,0,13.22,13.23v0A13.24,13.24,0,0,0,388.62,191.06Z"/><circle class="e" cx="388.62" cy="204.28" r="7.2"/><path class="b" d="M388.62,212a7.71,7.71,0,1,1,7.71-7.71A7.71,7.71,0,0,1,388.62,212Zm0-14.4a6.7,6.7,0,1,0,6.7,6.7h0a6.7,6.7,0,0,0-6.7-6.69Z"/><path class="g" d="M424.31,206.29V204.5a35.69,35.69,0,0,0-35.69-35.69h0a35.69,35.69,0,0,0-35.7,35.69h0v1.79a1.19,1.19,0,0,0,1.18,1.18h.38a1.19,1.19,0,0,0,1.18-1.18v-1.92a33.15,33.15,0,0,1,33.15-33.15h0A33.15,33.15,0,0,1,422,204.37h0v1.92a1.17,1.17,0,0,0,1.17,1.18h0a1.18,1.18,0,0,0,1.18-1.18Z"/><path class="g" d="M423.13,208.26a2,2,0,0,1-2-2v-1.92a32.37,32.37,0,1,0-64.73,0v1.92a2,2,0,0,1-2,2h-.38a2,2,0,0,1-2-2V204.5a36.49,36.49,0,0,1,73,0v1.79A2,2,0,0,1,423.13,208.26Zm-34.32-37.82a34,34,0,0,1,33.94,33.94v1.93a.39.39,0,0,0,.33.44.4.4,0,0,0,.45-.34v-1.89a34.91,34.91,0,1,0-69.82,0v1.79a.39.39,0,0,0,.38.39h.38a.39.39,0,0,0,.39-.39h0v-1.93a34,34,0,0,1,33.95-33.95Z"/><path class="b" d="M438.15,170.79a.5.5,0,0,1-.5-.5h0V158.5a.5.5,0,0,1,.57-.44.51.51,0,0,1,.44.44v11.81A.5.5,0,0,1,438.15,170.79Z"/><path class="b" d="M259.29,132.87a.52.52,0,0,1-.25-1l21.13-12.17a.5.5,0,1,1,.5.87l-21.12,12.17A.5.5,0,0,1,259.29,132.87Z"/><path class="b" d="M264.47,139.4a.51.51,0,0,1-.49-.53.49.49,0,0,1,.24-.42l37.09-21.37a.52.52,0,0,1,.69.19.51.51,0,0,1-.18.69h0l-37.1,21.36A.44.44,0,0,1,264.47,139.4Z"/><path class="b" d="M288.78,137.18a.56.56,0,0,1-.43-.25.51.51,0,0,1,.14-.7l0,0L306,125.91a.51.51,0,0,1,.69.19.49.49,0,0,1-.13.69l0,0L289,137.14A.46.46,0,0,1,288.78,137.18Z"/><path class="b" d="M337.8,136.75a.51.51,0,0,1-.3-.91l1-.81a.51.51,0,0,1,.7.17.52.52,0,0,1-.08.63l-1.05.78A.5.5,0,0,1,337.8,136.75Z"/><path class="b" d="M340.44,134.69a.51.51,0,0,1-.5-.52.52.52,0,0,1,.2-.39l18-14a.51.51,0,0,1,.69.18.49.49,0,0,1-.08.62l-18,14A.47.47,0,0,1,340.44,134.69Z"/><path class="b" d="M350.57,137.18a.51.51,0,0,1-.3-.92l3.39-2.48a.49.49,0,0,1,.7.07l0,0a.51.51,0,0,1-.08.72h0l-3.38,2.49A.54.54,0,0,1,350.57,137.18Z"/><path class="b" d="M356.48,132.84a.53.53,0,0,1-.5-.53.51.51,0,0,1,.21-.39l1.09-.79a.5.5,0,0,1,.7.08l0,0a.51.51,0,0,1-.1.71h0l-1.09.8A.53.53,0,0,1,356.48,132.84Z"/><path class="b" d="M359.13,130.9a.52.52,0,0,1-.5-.52.51.51,0,0,1,.2-.4l5.51-4a.51.51,0,0,1,.71.09l0,0a.52.52,0,0,1-.08.71l0,0-5.54,4A.49.49,0,0,1,359.13,130.9Z"/><path class="b" d="M363,136.75a.5.5,0,0,1-.52-.49.52.52,0,0,1,.23-.43l6.12-4.12a.5.5,0,0,1,.7.1l0,0a.51.51,0,0,1-.12.71l0,0-6.12,4.11A.46.46,0,0,1,363,136.75Z"/><path class="b" d="M431.27,152.94H423a15.6,15.6,0,0,1-11.77-5.37l-27.78-31.94a.5.5,0,1,1,.76-.66h0L412,146.91a14.59,14.59,0,0,0,11,5h8.27a.51.51,0,0,1,.57.44.52.52,0,0,1-.45.57Z"/></g><path class="f" d="M476.71,255.52V237.46a6.14,6.14,0,0,0-6.14-6.14H85.84a6.14,6.14,0,0,0-6.14,6.14h0v18.06Z"/><path class="e" d="M470.57,231.32H440.89a6.14,6.14,0,0,1,6.14,6.14h0v18.06h29.68V237.46a6.14,6.14,0,0,0-6.14-6.14Z"/><path class="b" d="M476.71,256h-397a.5.5,0,0,1-.51-.5h0V237.46a6.65,6.65,0,0,1,6.64-6.64H470.6a6.64,6.64,0,0,1,6.64,6.64v18.06a.5.5,0,0,1-.5.51ZM80.23,255h396V237.46a5.64,5.64,0,0,0-5.64-5.63H85.86a5.63,5.63,0,0,0-5.63,5.63Z"/><path class="b" d="M459.5,232H93.67a.5.5,0,0,1-.5-.5h0V81.62A9.65,9.65,0,0,1,102.8,72H450.34A9.66,9.66,0,0,1,460,81.62V231.44A.52.52,0,0,1,459.5,232Zm-365.36-1H459V81.61A8.62,8.62,0,0,0,450.34,73H102.76a8.62,8.62,0,0,0-8.62,8.61Z"/><path class="e" d="M441.17,80.27H429.42a8.29,8.29,0,0,1,8.26,8.28v130a5.88,5.88,0,0,0,5.88,5.88h0a5.87,5.87,0,0,0,5.87-5.88h0v-130A8.28,8.28,0,0,0,441.17,80.27Z"/><path class="b" d="M459.5,240.9H93.67a.51.51,0,0,1,0-1H459.5a.51.51,0,0,1,.56.45.49.49,0,0,1-.44.56Z"/></svg>