<svg xmlns="http://www.w3.org/2000/svg" viewBox="0 0 662.59 431.54"><defs><style>.cls-1{fill:#94c942;opacity:0.1;isolation:isolate;}.cls-2{fill:#fff;}.cls-3{opacity:0.5;}.cls-4{fill:#472253;}.cls-5{opacity:0.2;}.cls-6{fill:#472254;}.cls-7{fill:#93c842;}.cls-8{opacity:0.1;}</style></defs><g id="Layer_2" data-name="Layer 2"><g id="Layer_1-2" data-name="Layer 1"><g id="_1July" data-name="1July"><path class="cls-1" d="M232.12,386.67h0a140.09,140.09,0,0,1,97.8-36.19l191.67,4.7c110.36,2.69,178.71-115,118.7-204.46h0C556.1,25.3,395.13-29.93,247.79,16.05L183.37,36.16C65.67,72.89-10,183.38,1.08,302.29h0C11.35,412.5,148.81,462.69,232.12,386.67Z"/></g><path class="cls-2" d="M228.46,175.38H215.53V178a33.5,33.5,0,0,0,0,61.81v2.59h12.93a33.5,33.5,0,0,0,0-67Z"/><g class="cls-3"><path d="M228.46,175.38H215.53V178a33.5,33.5,0,0,0,0,61.81v2.59h12.93a33.5,33.5,0,0,0,0-67Z"/></g><path class="cls-4" d="M228.46,243.34H215.53a1,1,0,0,1-1-1v-2a34.47,34.47,0,0,1,0-63.08v-2a1,1,0,0,1,1-1h12.93a34.46,34.46,0,0,1,0,68.92Zm-12-1.92h12a32.54,32.54,0,0,0,0-65.07h-12V178a1,1,0,0,1-.59.89,32.54,32.54,0,0,0,0,60,1,1,0,0,1,.59.89Z"/><circle class="cls-2" cx="215.53" cy="208.88" r="33.5" transform="translate(-5.61 411.82) rotate(-86.65)"/><g class="cls-5"><circle cx="215.53" cy="208.88" r="33.5" transform="translate(-5.61 411.82) rotate(-86.65)"/></g><path class="cls-4" d="M215.53,243.34A34.46,34.46,0,1,1,250,208.88,34.5,34.5,0,0,1,215.53,243.34Zm0-67a32.54,32.54,0,1,0,32.53,32.53A32.57,32.57,0,0,0,215.53,176.35Z"/><path class="cls-4" d="M215.53,229.89a21,21,0,1,1,21-21A21,21,0,0,1,215.53,229.89Zm0-40.09a19.09,19.09,0,1,0,19.08,19.08A19.11,19.11,0,0,0,215.53,189.8Z"/><g class="cls-5"><path d="M200.87,208.88A20,20,0,0,1,218.22,189a20,20,0,1,0,0,39.69A20,20,0,0,1,200.87,208.88Z"/></g><path class="cls-4" d="M215.53,229.89a21,21,0,1,1,0-42,21.32,21.32,0,0,1,2.82.21,1,1,0,0,1,.84,1,1,1,0,0,1-.84,1,19.06,19.06,0,0,0,0,37.78,1,1,0,0,1,.84,1,1,1,0,0,1-.84,1A19.75,19.75,0,0,1,215.53,229.89Zm-4.39-39.58a19.09,19.09,0,0,0,0,37.15,21,21,0,0,1,0-37.15Z"/><path class="cls-6" d="M218.22,221.76a12.88,12.88,0,1,1,12.88-12.88A12.89,12.89,0,0,1,218.22,221.76Zm0-24.49a11.62,11.62,0,1,0,11.62,11.61A11.63,11.63,0,0,0,218.22,197.27Z"/><path class="cls-2" d="M482,175.38H469V178a33.5,33.5,0,0,0,0,61.81v2.59H482a33.5,33.5,0,0,0,0-67Z"/><g class="cls-3"><path d="M482,175.38H469V178a33.5,33.5,0,0,0,0,61.81v2.59H482a33.5,33.5,0,0,0,0-67Z"/></g><path class="cls-4" d="M482,243.34H469a1,1,0,0,1-1-1v-2a34.47,34.47,0,0,1,0-63.08v-2a1,1,0,0,1,1-1H482a34.46,34.46,0,0,1,0,68.92Zm-12-1.92h12a32.54,32.54,0,0,0,0-65.07H470V178a1,1,0,0,1-.59.89,32.54,32.54,0,0,0,0,60,1,1,0,0,1,.59.89Z"/><circle class="cls-2" cx="469.04" cy="208.88" r="33.5" transform="translate(237.05 666.93) rotate(-87.14)"/><g class="cls-5"><circle cx="469.04" cy="208.88" r="33.5" transform="translate(237.05 666.93) rotate(-87.14)"/></g><path class="cls-4" d="M469,243.34a34.46,34.46,0,1,1,34.46-34.46A34.5,34.5,0,0,1,469,243.34Zm0-67a32.54,32.54,0,1,0,32.53,32.53A32.56,32.56,0,0,0,469,176.35Z"/><path class="cls-4" d="M469,229.89a21,21,0,1,1,21-21A21,21,0,0,1,469,229.89Zm0-40.09a19.09,19.09,0,1,0,19.08,19.08A19.1,19.1,0,0,0,469,189.8Z"/><g class="cls-5"><path d="M454.38,208.88A20,20,0,0,1,471.73,189a19.79,19.79,0,0,0-2.69-.21,20,20,0,0,0,0,40.1,19.8,19.8,0,0,0,2.69-.2A20,20,0,0,1,454.38,208.88Z"/></g><path class="cls-6" d="M469,229.56a20.68,20.68,0,1,1,2.78-41.15.63.63,0,0,1,0,1.25,19.39,19.39,0,0,0,0,38.44.64.64,0,0,1,.54.63.63.63,0,0,1-.54.62A20.76,20.76,0,0,1,469,229.56Zm-1.92-40a19.41,19.41,0,0,0,0,38.64,20.64,20.64,0,0,1,0-38.64Z"/><path class="cls-4" d="M471.73,222.09a13.21,13.21,0,1,1,13.21-13.21A13.22,13.22,0,0,1,471.73,222.09Zm0-24.49A11.28,11.28,0,1,0,483,208.88,11.29,11.29,0,0,0,471.73,197.6Z"/><g class="cls-5"><path d="M520.77,167.9h9.48a7.23,7.23,0,0,0,7.23-7.22V146.37a7.23,7.23,0,0,0-7.23-7.22h-9.48Z"/></g><path class="cls-2" d="M187.47,175.38H174.54V178a33.5,33.5,0,0,0,0,61.81v2.59h12.93a33.5,33.5,0,1,0,0-67Z"/><g class="cls-5"><path d="M187.47,175.38H174.54V178a33.5,33.5,0,0,0,0,61.81v2.59h12.93a33.5,33.5,0,1,0,0-67Z"/></g><path class="cls-4" d="M187.47,243.34H174.54a1,1,0,0,1-1-1v-2a34.47,34.47,0,0,1,0-63.08v-2a1,1,0,0,1,1-1h12.93a34.46,34.46,0,0,1,0,68.92Zm-12-1.92h12a32.54,32.54,0,0,0,0-65.07h-12V178a1,1,0,0,1-.59.89,32.54,32.54,0,0,0,0,60,1,1,0,0,1,.59.89Z"/><path class="cls-2" d="M447.66,175.38H434.73V178a33.5,33.5,0,0,0,0,61.81v2.59h12.93a33.5,33.5,0,0,0,0-67Z"/><g class="cls-5"><path d="M447.66,175.38H434.73V178a33.5,33.5,0,0,0,0,61.81v2.59h12.93a33.5,33.5,0,0,0,0-67Z"/></g><path class="cls-4" d="M447.66,243.34H434.73a1,1,0,0,1-1-1v-2a34.47,34.47,0,0,1,0-63.08v-2a1,1,0,0,1,1-1h12.93a34.46,34.46,0,0,1,0,68.92Zm-12-1.92h12a32.54,32.54,0,0,0,0-65.07h-12V178a1,1,0,0,1-.59.89,32.54,32.54,0,0,0,0,60,1,1,0,0,1,.59.89Z"/><path class="cls-4" d="M530.25,168.87h-9.48a1,1,0,0,1-1-1V139.15a1,1,0,0,1,1-1h9.48a8.2,8.2,0,0,1,8.19,8.19v14.31A8.2,8.2,0,0,1,530.25,168.87Zm-8.51-1.93h8.51a6.27,6.27,0,0,0,6.26-6.26V146.37a6.27,6.27,0,0,0-6.26-6.26h-8.51Z"/><path class="cls-2" d="M509.06,211.57H436.78l-6.94,6a17.68,17.68,0,0,1-11.59,4.33H247.48L186.3,199.63H175.15l-.22.52a6.42,6.42,0,0,1-8,3.52l-20-6.85a3.36,3.36,0,0,1-2.26-3.16v-1.85a2.53,2.53,0,0,1,2.53-2.53h3.61V181.8a93.9,93.9,0,0,1,19.9-57.8h0l36.78-49a28.66,28.66,0,0,1,22.93-11.47h141.3c9.71,0,17,4.92,22.25,13.06l18.87,29.07a41.23,41.23,0,0,0,25.34,17.74l84.06,15.22a17.65,17.65,0,0,1,13.66,18.13L535,174.29a11.82,11.82,0,0,1-4.6,8.75h0a2.23,2.23,0,0,0-.86,1.76v1.72a13.91,13.91,0,0,1-1.71,6.67L521.94,204A14.7,14.7,0,0,1,509.06,211.57Z"/><path class="cls-7" d="M436.78,211.57h-211v10.35H418.25s4.66,1.69,11.6-4.33Z"/><g class="cls-5"><path d="M436.78,211.57h-211v10.35H418.25s4.66,1.69,11.6-4.33Z"/></g><path class="cls-7" d="M357.32,78.05H395s-7.5-14.56-25-14.56H332.3S349.77,63.49,357.32,78.05Z"/><path class="cls-4" d="M418.25,222.88H247.48a1,1,0,0,1-.33-.06l-61-22.23H175.78a7.4,7.4,0,0,1-9.13,4l-20-6.85a4.31,4.31,0,0,1-2.91-4.07v-1.85a3.5,3.5,0,0,1,3.49-3.5h2.64V181.8A95.3,95.3,0,0,1,170,123.4l36.76-49a29.75,29.75,0,0,1,23.7-11.85H370A29.54,29.54,0,0,1,394.82,76l18.87,29.07a40.06,40.06,0,0,0,24.75,17.32l84,15.21a18.62,18.62,0,0,1,14.46,19.14L536,174.35a12.77,12.77,0,0,1-5,9.45,1.3,1.3,0,0,0-.49,1v2.12a13.2,13.2,0,0,1-1.64,6.38l-7,12.84a12.31,12.31,0,0,1-10.8,6.39H437.14l-6.66,5.78A18.64,18.64,0,0,1,418.25,222.88ZM247.65,221h170.6a16.71,16.71,0,0,0,11-4.09l6.94-6a1,1,0,0,1,.63-.24H511a10.37,10.37,0,0,0,9.11-5.39l7.06-12.84h0a11.39,11.39,0,0,0,1.4-5.45V184.8a3.21,3.21,0,0,1,1.24-2.53,10.85,10.85,0,0,0,4.22-8l.92-17.58a16.66,16.66,0,0,0-12.92-17.14l-84-15.21a42.07,42.07,0,0,1-26-18.16L393.2,77.08A27.6,27.6,0,0,0,370,64.46H230.46A27.83,27.83,0,0,0,208.3,75.54l-36.77,49a93.33,93.33,0,0,0-19.72,57.22v7.48a1,1,0,0,1-1,1h-3.61a1.57,1.57,0,0,0-1.57,1.57v1.85a2.39,2.39,0,0,0,1.61,2.25l20,6.85a5.47,5.47,0,0,0,6.76-3l.23-.53a1,1,0,0,1,.88-.58H186.3a.92.92,0,0,1,.33.06Z"/><path class="cls-2" d="M474.65,211.57H399.12l-6.94,6a17.68,17.68,0,0,1-11.59,4.33H209.82l-61.18-22.29H137.49l-.23.52a6.4,6.4,0,0,1-8,3.52l-20-6.85a3.36,3.36,0,0,1-2.26-3.16v-1.85a2.53,2.53,0,0,1,2.53-2.53h3.61V181.8a93.84,93.84,0,0,1,19.9-57.8h0l36.77-49A28.68,28.68,0,0,1,192.8,63.49H332.3a28.69,28.69,0,0,1,24.05,13.06l18.87,29.07a41.2,41.2,0,0,0,25.34,17.74l84.05,15.22a17.65,17.65,0,0,1,13.67,18.13l-.92,17.58a11.85,11.85,0,0,1-4.6,8.75h0a2.23,2.23,0,0,0-.86,1.76v5.27l-9.19,16.73A9.21,9.21,0,0,1,474.65,211.57Z"/><path class="cls-7" d="M226.61,221.92v-8.24a14.22,14.22,0,0,0-9-13.23l-3.08-1.22h0a4.71,4.71,0,0,0-4.71,4.71v18Z"/><path class="cls-7" d="M125.36,134.68h335l24.25,3.9s-3.12.35-3.12,4.35v9.54H118.71S117.62,145.36,125.36,134.68Z"/><path class="cls-7" d="M125.36,134.68h335l24.25,3.9s-3.12.35-3.12,4.35v9.54H118.71S117.62,145.36,125.36,134.68Z"/><path class="cls-2" d="M117.15,154.85h-9a2,2,0,0,1-2-2h0a4,4,0,0,1,.82-2.42l2.19-2.85a6.06,6.06,0,0,1,4.81-2.37h6.67S118.14,151.26,117.15,154.85Z"/><path class="cls-6" d="M380.59,222.55H209.82a.85.85,0,0,1-.22,0l-61.07-22.25H137.9l-.06.14a7.09,7.09,0,0,1-8.75,3.87l-20-6.86a4,4,0,0,1-2.68-3.75v-1.85a3.16,3.16,0,0,1,3.16-3.16h3V181.8a94.89,94.89,0,0,1,20-58.19l36.76-49A29.45,29.45,0,0,1,192.8,62.86H332.3a29.2,29.2,0,0,1,24.58,13.35l18.86,29.07a40.44,40.44,0,0,0,25,17.47l84,15.21a18.27,18.27,0,0,1,14.19,18.79L498,174.33a12.44,12.44,0,0,1-4.83,9.21,1.6,1.6,0,0,0-.62,1.26v5.27a.68.68,0,0,1-.08.31l-8.8,16a11.18,11.18,0,0,1-9.8,5.8h-74.5l-6.76,5.86A18.31,18.31,0,0,1,380.59,222.55Zm-170.66-1.26H380.59a17.07,17.07,0,0,0,11.18-4.18l6.93-6a.64.64,0,0,1,.42-.15h74.73a9.9,9.9,0,0,0,8.69-5.15l8.73-15.88V184.8a2.85,2.85,0,0,1,1.11-2.26,11.22,11.22,0,0,0,4.35-8.28l.92-17.58a17,17,0,0,0-13.18-17.48l-84-15.22a41.63,41.63,0,0,1-25.76-18L355.82,76.9A27.94,27.94,0,0,0,332.3,64.12H192.8a28.17,28.17,0,0,0-22.43,11.22l-36.77,49a93.64,93.64,0,0,0-19.78,57.42v7.48a.64.64,0,0,1-.63.63h-3.61a1.9,1.9,0,0,0-1.9,1.9v1.85a2.7,2.7,0,0,0,1.83,2.56l20,6.86a5.81,5.81,0,0,0,7.18-3.18l.23-.52a.64.64,0,0,1,.58-.38h11.15a.71.71,0,0,1,.21,0Z"/><path class="cls-7" d="M399.12,211.57H226.61v10.35h154a17.68,17.68,0,0,0,11.59-4.33Z"/><path class="cls-2" d="M168.51,84h-5.14l-4.08,5.38h5a2.44,2.44,0,0,1,2,3.89L146.67,120a7.87,7.87,0,0,0,1.28-1.36l22.53-30.77A2.44,2.44,0,0,0,168.51,84Z"/><path class="cls-4" d="M380.59,222.88H209.82a1,1,0,0,1-.33-.06l-61-22.23H138.12a7.4,7.4,0,0,1-9.13,4l-20-6.85a4.3,4.3,0,0,1-2.9-4.07v-1.85a3.5,3.5,0,0,1,3.49-3.5h2.64V181.8a95.29,95.29,0,0,1,20.11-58.4l36.76-49A29.79,29.79,0,0,1,192.8,62.53H332.3A29.54,29.54,0,0,1,357.16,76L376,105.1a40.08,40.08,0,0,0,24.76,17.32l84,15.21a18.6,18.6,0,0,1,14.46,19.14l-.92,17.58a12.77,12.77,0,0,1-5,9.45,1.26,1.26,0,0,0-.49,1v1.85a14.26,14.26,0,0,1-1.77,6.88l-7.21,13.15a11.3,11.3,0,0,1-9.9,5.85h-74.5l-6.67,5.78A18.61,18.61,0,0,1,380.59,222.88ZM210,221h170.6a16.71,16.71,0,0,0,11-4.09l6.93-6a1,1,0,0,1,.64-.24H474a9.37,9.37,0,0,0,8.21-4.85l7.21-13.14a12.41,12.41,0,0,0,1.53-6V184.8a3.24,3.24,0,0,1,1.24-2.53,10.79,10.79,0,0,0,4.22-8l.93-17.58a16.66,16.66,0,0,0-12.92-17.14l-84-15.21a42,42,0,0,1-26-18.16L355.54,77.08A27.62,27.62,0,0,0,332.3,64.46H192.8a27.81,27.81,0,0,0-22.16,11.08l-36.78,49a93.38,93.38,0,0,0-19.71,57.22v7.48a1,1,0,0,1-1,1h-3.61a1.57,1.57,0,0,0-1.57,1.57v1.85a2.39,2.39,0,0,0,1.61,2.25l20,6.85a5.48,5.48,0,0,0,6.77-3l.22-.53a1,1,0,0,1,.89-.58h11.15a1,1,0,0,1,.33.06Z"/><path class="cls-7" d="M167.55,78.05H357.32l-1-1.5A28.69,28.69,0,0,0,332.3,63.49H192.8A28.68,28.68,0,0,0,169.86,75Z"/><g class="cls-5"><path d="M181.94,120.13l-.21-.27a2.55,2.55,0,0,1-.06-3.06L197,95.33a13.8,13.8,0,0,1,11.21-5.76H201a13.79,13.79,0,0,0-11.2,5.76L174.49,116.8a2.57,2.57,0,0,0,0,3.06l.21.27a3,3,0,0,0,2.4,1.18h7.18A3,3,0,0,1,181.94,120.13Z"/></g><path class="cls-4" d="M380.59,222.88h-154a1,1,0,0,1-1-1V211.57a1,1,0,0,1,1-1H399.12a1,1,0,0,1,.63,1.69l-6.94,6A18.61,18.61,0,0,1,380.59,222.88Zm-153-1.93h153a16.71,16.71,0,0,0,11-4.09l5-4.33h-169Z"/><path class="cls-7" d="M137.49,199.63V189.28H109.58a2.53,2.53,0,0,0-2.53,2.53v1.85a3.36,3.36,0,0,0,2.26,3.16l20,6.85a6.4,6.4,0,0,0,8-3.52Z"/><path class="cls-6" d="M131.35,204.64a7.13,7.13,0,0,1-2.26-.37l-20-6.86a4,4,0,0,1-2.68-3.75v-1.85a3.16,3.16,0,0,1,3.16-3.16h27.91a.63.63,0,0,1,.63.63v10.35a.74.74,0,0,1-.05.25l-.23.52A7.09,7.09,0,0,1,131.35,204.64Zm-21.77-14.73a1.9,1.9,0,0,0-1.9,1.9v1.85a2.7,2.7,0,0,0,1.83,2.56l20,6.86a5.81,5.81,0,0,0,7.18-3.18l.18-.4v-9.59Zm27.91,9.72Z"/><path class="cls-6" d="M226.61,222.55H209.82a.63.63,0,0,1-.63-.63v-18a5.35,5.35,0,0,1,5.34-5.34.59.59,0,0,1,.23,0l3.08,1.22a14.78,14.78,0,0,1,9.4,13.82v8.24A.63.63,0,0,1,226.61,222.55Zm-16.16-1.26H226v-7.61a13.54,13.54,0,0,0-8.6-12.65l-3-1.17a4.09,4.09,0,0,0-4,4.08Z"/><g class="cls-5"><path d="M217.61,200.45l-3.08-1.22a4.64,4.64,0,0,0-2.1.5l1.82.72a14.22,14.22,0,0,1,9,13.23v8.24h3.36v-8.24A14.22,14.22,0,0,0,217.61,200.45Z"/></g><path class="cls-4" d="M226.61,222.88h-3.36a1,1,0,0,1-1-1v-8.24a13.21,13.21,0,0,0-8.39-12.34l-1.82-.72a1,1,0,0,1-.61-.85,1,1,0,0,1,.53-.91,5.74,5.74,0,0,1,2.53-.6,1,1,0,0,1,.35.07l3.09,1.22h0a15.11,15.11,0,0,1,9.6,14.13v8.24A1,1,0,0,1,226.61,222.88Zm-2.4-1.93h1.44v-7.27a13.19,13.19,0,0,0-6.75-11.56,15.13,15.13,0,0,1,5.31,11.56Z"/><path class="cls-4" d="M133.09,190.24h-19.9a1,1,0,0,1-1-1v-6.93a99,99,0,0,1,20.11-59.62l34.45-45.27a1,1,0,0,1,.77-.38h20a1,1,0,0,1,.78,1.54L156.4,121.67a114.22,114.22,0,0,0-22.35,67.61A1,1,0,0,1,133.09,190.24Zm-18.94-1.93h18a116.21,116.21,0,0,1,22.72-67.79L185.66,79H168l-34.17,44.88a97.11,97.11,0,0,0-19.71,58.46Z"/><path class="cls-4" d="M117.15,155.81h-9a3,3,0,0,1-3-3,5,5,0,0,1,1-3l2.19-2.85a7.08,7.08,0,0,1,5.58-2.75h6.67a1,1,0,0,1,.89,1.31c0,.07-2.4,6.09-3.37,9.58A1,1,0,0,1,117.15,155.81Zm-3.26-9.68a5.14,5.14,0,0,0-4,2L107.65,151a3,3,0,0,0-.62,1.83,1.07,1.07,0,0,0,1.08,1.07h8.31c.77-2.55,2-5.92,2.73-7.75Z"/><path class="cls-4" d="M476.37,212.53H470.8a1,1,0,0,1-.86-.53l-9.52-18.72a28.5,28.5,0,0,0-50.73-.14L400,212a1,1,0,0,1-.85.52H385a1,1,0,0,1-.82-.47.93.93,0,0,1,0-.94L396.89,187a42.37,42.37,0,0,1,74.39-1l5.93,10.55a1,1,0,0,1,.13.47v14.53A1,1,0,0,1,476.37,212.53Zm-5-1.93h4V197.29L469.6,187a40.44,40.44,0,0,0-71,.95l-12,22.68h11.91L408,192.26a30.42,30.42,0,0,1,54.15.14Z"/><path class="cls-4" d="M344.22,206H238.76a1,1,0,0,1,0-1.93H344.22a1,1,0,0,1,0,1.93Z"/><path class="cls-4" d="M357.32,79H167.55a1,1,0,0,1-.77-1.54l2.31-3.09A29.79,29.79,0,0,1,192.8,62.53H332.3A29.54,29.54,0,0,1,357.16,76l1,1.49a1,1,0,0,1,0,1A.94.94,0,0,1,357.32,79ZM169.48,77.08H355.54A27.62,27.62,0,0,0,332.3,64.46H192.8a27.81,27.81,0,0,0-22.16,11.08Z"/><path class="cls-4" d="M117.15,155.81h-9a3,3,0,0,1-3-3v-1.35a1,1,0,0,1,.2-.58l1.11-1.46a1,1,0,0,1,.77-.38h11.52a1,1,0,0,1,.78.4.94.94,0,0,1,.13.86l-1.55,4.84A1,1,0,0,1,117.15,155.81Zm-10.12-4v1a1.07,1.07,0,0,0,1.08,1.07h8.34l.93-2.91h-9.72Z"/><path class="cls-4" d="M131.35,205a7.18,7.18,0,0,1-2.36-.4l-20-6.85a4.3,4.3,0,0,1-2.9-4.07,1,1,0,0,1,1-1h30.44a1,1,0,0,1,1,1v6a1,1,0,0,1-.08.38l-.22.52A7.42,7.42,0,0,1,131.35,205Zm-23.13-10.36a2.38,2.38,0,0,0,1.4,1.29l20,6.85a5.48,5.48,0,0,0,6.77-3l.14-.34v-4.81Z"/><path class="cls-4" d="M381.44,200.59a1,1,0,0,1-1-1V141.54a1,1,0,0,1,1.93,0v58.09A1,1,0,0,1,381.44,200.59Z"/><path class="cls-4" d="M374,135.06H162.42a154.29,154.29,0,0,1-28.2-2.61l-5.15-1a1,1,0,1,1,.36-1.89l5.15,1a152.11,152.11,0,0,0,27.84,2.57H374a1,1,0,0,1,0,1.93Z"/><path class="cls-4" d="M266.39,128a1,1,0,0,1-1-1V84a1,1,0,1,1,1.92,0v43A1,1,0,0,1,266.39,128Z"/><path class="cls-4" d="M269.37,201.06a1,1,0,0,1-.87-.54,31.2,31.2,0,0,1-3.07-13.46V140.12a1,1,0,1,1,1.92,0v46.94a29.32,29.32,0,0,0,2.88,12.62,1,1,0,0,1-.44,1.29A1.06,1.06,0,0,1,269.37,201.06Z"/><path class="cls-4" d="M209.82,222.88a1,1,0,0,1-.95-.82L206,203.5c-2.4-15.36-15-27.14-29.93-28-.7,0-1.4-.06-2.09-.06a30,30,0,0,0-24.75,13l-8.08,11.74a1,1,0,0,1-.79.42h-2.84a1,1,0,0,1-1-1V189.28a.94.94,0,0,1,.17-.54l4.27-6.33a40.84,40.84,0,0,1,73.14,11.75l1.36,4.81a1,1,0,0,1-.93,1.22,3.75,3.75,0,0,0-3.75,3.75v18a1,1,0,0,1-.89,1ZM174,173.49c.73,0,1.47,0,2.2.06,15.85.94,29.19,13.41,31.72,29.65l1,6.3v-5.56a5.68,5.68,0,0,1,4.44-5.54l-1.06-3.72a38.91,38.91,0,0,0-69.68-11.19l-4.11,6.08v9.09h1.37l7.8-11.33A31.94,31.94,0,0,1,174,173.49Z"/><path class="cls-4" d="M366.51,206H353.18a1,1,0,1,1,0-1.93h13.33a1,1,0,0,1,0,1.93Z"/><path class="cls-4" d="M388.47,206H378.25a1,1,0,0,1,0-1.93h10.22a1,1,0,0,1,0,1.93Z"/><path class="cls-4" d="M232,206h-8.33a1,1,0,0,1,0-1.93H232a1,1,0,0,1,0,1.93Z"/><path class="cls-4" d="M252.1,128H174.65a8.43,8.43,0,0,1-6.9-13.25l16.31-23.34A19.5,19.5,0,0,1,200,83H252.1A7.94,7.94,0,0,1,260,91v29A7.94,7.94,0,0,1,252.1,128ZM200,85a17.58,17.58,0,0,0-14.39,7.5L169.33,115.8A6.5,6.5,0,0,0,174.65,126H252.1a6,6,0,0,0,6-6V91a6,6,0,0,0-6-6Z"/><path class="cls-4" d="M250.06,122.27H177.15a4,4,0,0,1-3.16-1.55l-.21-.27a3.51,3.51,0,0,1-.08-4.21l15.36-21.47a14.76,14.76,0,0,1,12-6.16h49a4.31,4.31,0,0,1,4.3,4.3V118A4.3,4.3,0,0,1,250.06,122.27ZM201,90.53a12.86,12.86,0,0,0-10.42,5.36l-15.35,21.47a1.59,1.59,0,0,0,0,1.91l.21.27a2.05,2.05,0,0,0,1.63.81h72.91a2.38,2.38,0,0,0,2.37-2.37V92.91a2.38,2.38,0,0,0-2.37-2.38Z"/><path class="cls-4" d="M184.33,122.27h-7.18a4,4,0,0,1-3.16-1.55l-.21-.27a3.51,3.51,0,0,1-.08-4.21l15.36-21.47a14.76,14.76,0,0,1,12-6.16h7.19a1,1,0,1,1,0,1.92,12.85,12.85,0,0,0-10.42,5.36l-15.36,21.47a1.59,1.59,0,0,0,0,1.91l.21.27h0a2.07,2.07,0,0,0,1.63.81,1,1,0,1,1,0,1.92ZM201,90.53a12.85,12.85,0,0,0-10.32,5.36l-15.36,21.47a1.59,1.59,0,0,0,0,1.91l.21.27a2.05,2.05,0,0,0,1.63.81h3.74a3.5,3.5,0,0,1,0-4.11l15.35-21.47A14.79,14.79,0,0,1,201,90.53Z"/><path class="cls-4" d="M401.23,159.75a1,1,0,0,1-.8-.43L347.34,78.58a1,1,0,0,1,.28-1.34,1,1,0,0,1,1.33.28L402,158.26a1,1,0,0,1-.28,1.33A.94.94,0,0,1,401.23,159.75Z"/><path class="cls-4" d="M410.53,173.9a.94.94,0,0,1-.8-.44l-3.31-5a1,1,0,0,1,1.61-1.06l3.31,5a1,1,0,0,1-.28,1.33A.92.92,0,0,1,410.53,173.9Z"/><path class="cls-4" d="M361.26,128H279.5a7.31,7.31,0,0,1-7.3-7.31V90.34A7.31,7.31,0,0,1,279.5,83h54.89A16.23,16.23,0,0,1,348,90.42l18.34,28.1a6.1,6.1,0,0,1-5.1,9.43ZM279.5,85a5.38,5.38,0,0,0-5.38,5.38v30.3A5.38,5.38,0,0,0,279.5,126h81.76a4.17,4.17,0,0,0,3.49-6.45l-18.34-28.1a14.31,14.31,0,0,0-12-6.51Z"/><path class="cls-4" d="M355.2,122.27H281.15a3.13,3.13,0,0,1-3.13-3.12V91.74a3.13,3.13,0,0,1,3.13-3.13h50.94A13,13,0,0,1,343,94.47l15,22.74a3.26,3.26,0,0,1-2.73,5.06ZM281.15,90.53a1.21,1.21,0,0,0-1.21,1.21v27.41a1.21,1.21,0,0,0,1.21,1.2H355.2a1.33,1.33,0,0,0,1.18-.71,1.3,1.3,0,0,0-.06-1.37l-15-22.74a11.06,11.06,0,0,0-9.27-5Z"/><g class="cls-5"><path d="M284.86,119.15V91.74A2.17,2.17,0,0,1,287,89.57h-5.87A2.17,2.17,0,0,0,279,91.74v27.41a2.17,2.17,0,0,0,2.17,2.16H287A2.16,2.16,0,0,1,284.86,119.15Z"/></g><path class="cls-4" d="M287,122.27h-5.87a3.13,3.13,0,0,1-3.13-3.12V91.74a3.13,3.13,0,0,1,3.13-3.13H287a1,1,0,1,1,0,1.92,1.21,1.21,0,0,0-1.2,1.21v27.41a1.2,1.2,0,0,0,1.2,1.2,1,1,0,1,1,0,1.92Zm-5.87-31.74a1.21,1.21,0,0,0-1.21,1.21v27.41a1.21,1.21,0,0,0,1.21,1.2h3a3,3,0,0,1-.24-1.2V91.74a3,3,0,0,1,.24-1.21Z"/><path class="cls-4" d="M238.76,72.77H172.63a1,1,0,1,1,0-1.92h66.13a1,1,0,1,1,0,1.92Z"/><path class="cls-4" d="M352.47,72.77H255.22a1,1,0,0,1,0-1.92h97.25a1,1,0,1,1,0,1.92Z"/><path class="cls-4" d="M117.1,179.89h-3.79a.94.94,0,0,1-.69-.29,1,1,0,0,1-.27-.7c0-.6.47-14.67,3.89-24.37a1,1,0,0,1,.91-.65h7.91a3.4,3.4,0,0,1,3.3,4.14l-3.58,15.74A7.83,7.83,0,0,1,117.1,179.89ZM114.32,178h2.78a5.91,5.91,0,0,0,5.8-4.63l3.58-15.74a1.44,1.44,0,0,0-.28-1.23,1.46,1.46,0,0,0-1.14-.55h-7.22C115.21,163.74,114.48,174.65,114.32,178Z"/><path class="cls-4" d="M123,173h-9.23a1,1,0,1,1,0-1.92H123a1,1,0,1,1,0,1.92Z"/><path class="cls-4" d="M125.36,167.85H114.42a1,1,0,0,1,0-1.93h10.94a1,1,0,0,1,0,1.93Z"/><path class="cls-4" d="M131.57,148.88a5.08,5.08,0,1,1,5.09-5.08A5.09,5.09,0,0,1,131.57,148.88Zm0-8.24a3.16,3.16,0,1,0,3.16,3.16A3.16,3.16,0,0,0,131.57,140.64Z"/><path class="cls-4" d="M141.29,123a9.18,9.18,0,0,1-1.17-.07l-5.14-.65a1,1,0,0,1-.64-1.54L162.6,83.42a1,1,0,0,1,.77-.39h5.14a3.41,3.41,0,0,1,2.75,5.42l-22.53,30.77A9.23,9.23,0,0,1,141.29,123Zm-4.41-2.43,3.49.45a7.29,7.29,0,0,0,6.8-2.93L169.7,87.31A1.47,1.47,0,0,0,168.51,85h-4.67Z"/><path class="cls-4" d="M146.67,121a1,1,0,0,1-.65-.25,1,1,0,0,1-.12-1.28L165.48,92.7a1.46,1.46,0,0,0,.12-1.54,1.44,1.44,0,0,0-1.32-.81h-5a1,1,0,0,1-.77-1.55l4.08-5.38a1,1,0,0,1,.77-.39h5.14a3.42,3.42,0,0,1,2.75,5.42l-22.53,30.77a9.18,9.18,0,0,1-1.43,1.52A.93.93,0,0,1,146.67,121Zm14.55-32.55h3.06a3.4,3.4,0,0,1,3,1.87l.08.16,2.3-3.14A1.47,1.47,0,0,0,168.51,85h-4.67Z"/><path class="cls-4" d="M144.71,128l-.17,0-12.18-2.27a1,1,0,1,1,.35-1.89L144.89,126a1,1,0,0,1,.77,1.12A1,1,0,0,1,144.71,128Z"/><path class="cls-4" d="M463.27,178.14a1,1,0,0,1-.9-.61,1,1,0,0,1,.55-1.25l24-9.42a5.06,5.06,0,0,0,3.23-4.74V144.94a5.08,5.08,0,0,0-3.95-5,1,1,0,0,1,.43-1.87,7,7,0,0,1,5.44,6.84v17.18a7,7,0,0,1-4.45,6.53l-24,9.43A1,1,0,0,1,463.27,178.14Z"/><path class="cls-4" d="M406.71,129.65H381.44a1,1,0,1,1,0-1.93h25.27a1,1,0,1,1,0,1.93Z"/><path class="cls-4" d="M476.37,195.87a1,1,0,0,1-1-1v-6.33a4.64,4.64,0,0,1,4.63-4.64h2a6.4,6.4,0,0,0,6.4-6.39v-11a1,1,0,1,1,1.92,0v11a8.33,8.33,0,0,1-8.32,8.32h-2a2.7,2.7,0,0,0-2.7,2.71v6.33A1,1,0,0,1,476.37,195.87Z"/><circle class="cls-2" cx="434.73" cy="208.88" r="33.5" transform="translate(184.03 620.91) rotate(-84.35)"/><g class="cls-5"><path d="M405.47,213.73A33.49,33.49,0,0,1,462,189.37a33.49,33.49,0,1,0-50.2,43.87A33.3,33.3,0,0,1,405.47,213.73Z"/></g><path class="cls-4" d="M434.73,243.34a34.46,34.46,0,1,1,34.46-34.46A34.5,34.5,0,0,1,434.73,243.34Zm0-67a32.54,32.54,0,1,0,32.53,32.53A32.56,32.56,0,0,0,434.73,176.35Z"/><path class="cls-4" d="M434.73,229.89a21,21,0,1,1,21-21A21,21,0,0,1,434.73,229.89Zm0-40.09a19.09,19.09,0,1,0,19.08,19.08A19.1,19.1,0,0,0,434.73,189.8Z"/><g class="cls-5"><path d="M420.07,208.88A20,20,0,0,1,437.42,189a20,20,0,1,0,0,39.69A20,20,0,0,1,420.07,208.88Z"/></g><path class="cls-4" d="M434.73,229.89a21,21,0,0,1,0-42,21.32,21.32,0,0,1,2.82.21,1,1,0,0,1,.84,1,1,1,0,0,1-.84,1,19.06,19.06,0,0,0,0,37.78,1,1,0,0,1,.84,1,1,1,0,0,1-.84,1A19.75,19.75,0,0,1,434.73,229.89Zm-4.39-39.58a19.09,19.09,0,0,0,0,37.15,21,21,0,0,1,0-37.15Z"/><path class="cls-4" d="M437.42,222.09a13.21,13.21,0,1,1,13.21-13.21A13.23,13.23,0,0,1,437.42,222.09Zm0-24.49a11.28,11.28,0,1,0,11.28,11.28A11.29,11.29,0,0,0,437.42,197.6Z"/><path class="cls-4" d="M528.64,191h-27.9a1,1,0,1,1,0-1.93h27.9a1,1,0,0,1,0,1.93Z"/><path class="cls-4" d="M520.77,185.76h-28a1,1,0,0,1,0-1.93h28a1,1,0,1,1,0,1.93Z"/><path class="cls-4" d="M529.56,185.76h-4a1,1,0,0,1,0-1.93h4a1,1,0,0,1,0,1.93Z"/><path class="cls-4" d="M485.49,169.12a5,5,0,0,1-5-5V142.93a5,5,0,0,1,6.08-4.84,7,7,0,0,1,5.45,6.86v17.16a7,7,0,0,1-4.46,6.55l-.29.11A5,5,0,0,1,485.49,169.12Zm0-29.23a3.06,3.06,0,0,0-1.89.66,3,3,0,0,0-1.14,2.38v21.23A3,3,0,0,0,486.6,167l.29-.12a5.08,5.08,0,0,0,3.25-4.75V145a5.09,5.09,0,0,0-4-5A3.23,3.23,0,0,0,485.49,139.89Z"/><path class="cls-4" d="M395,79H357.32a1,1,0,0,1-.86-.52c-7.19-13.87-24-14-24.16-14a1,1,0,0,1,0-1.93H370c17.89,0,25.79,14.92,25.87,15.08a1,1,0,0,1,0,.94A.94.94,0,0,1,395,79ZM357.9,77.08h35.36c-2.39-3.55-9.81-12.62-23.29-12.62H342.34A27.42,27.42,0,0,1,357.9,77.08Z"/><path class="cls-4" d="M390.1,72.77h-12a1,1,0,0,1,0-1.92h12a1,1,0,1,1,0,1.92Z"/><path class="cls-4" d="M371.23,72.77h-7.75a1,1,0,1,1,0-1.92h7.75a1,1,0,1,1,0,1.92Z"/><path class="cls-4" d="M426.06,119.38h0c-.11,0-10.72,0-17.75,0h-.1a29.84,29.84,0,0,1-19.89-7.44l-.25-.22a53.57,53.57,0,0,1-9.52-11.56l-7.1-11.43A3.71,3.71,0,0,1,374.59,83h24.25a1,1,0,0,1,.81.44l14,21.63a41.45,41.45,0,0,0,12.84,12.48,1,1,0,0,1-.47,1.8Zm-17.75-2,14.52,0a43.56,43.56,0,0,1-10.76-11.29L398.32,85H374.59a1.78,1.78,0,0,0-1.51,2.71l7.11,11.44a51.52,51.52,0,0,0,9.17,11.14l.24.21a27.93,27.93,0,0,0,18.61,7Z"/><g class="cls-5"><path d="M402.46,89.57H373.13l-.86-1.39s-1.85-3.57,2.32-4.18h24.25Z"/></g><path class="cls-4" d="M402.46,90.53H373.13a1,1,0,0,1-.82-.45l-.86-1.39,0-.06a4.34,4.34,0,0,1-.17-3.65,4,4,0,0,1,3.21-1.93l.14,0h24.25a1,1,0,0,1,.81.44l3.62,5.58a1,1,0,0,1,0,1A1,1,0,0,1,402.46,90.53Zm-28.8-1.92h27L398.32,85H374.67a2.31,2.31,0,0,0-1.71.89,2.39,2.39,0,0,0,.15,1.86Z"/><path class="cls-4" d="M535,176.35H516.4a11.56,11.56,0,0,1-11.54-11.54v-9.24a5.85,5.85,0,0,1,5.84-5.84h24.52a1,1,0,0,1,.89.62,17.94,17.94,0,0,1,.8,6.43L536,175.43A1,1,0,0,1,535,176.35ZM510.7,151.66a3.91,3.91,0,0,0-3.91,3.91v9.24a9.62,9.62,0,0,0,9.61,9.61h17.7l.88-17.75a17.15,17.15,0,0,0-.46-5Z"/><path class="cls-2" d="M141,208.88a33.5,33.5,0,1,0,33.5-33.5A33.5,33.5,0,0,0,141,208.88Z"/><g class="cls-5"><path d="M145.28,213.73a33.49,33.49,0,0,1,56.48-24.36,33.49,33.49,0,1,0-50.2,43.87A33.3,33.3,0,0,1,145.28,213.73Z"/></g><path class="cls-4" d="M174.54,243.34A34.46,34.46,0,1,1,209,208.88,34.5,34.5,0,0,1,174.54,243.34Zm0-67a32.54,32.54,0,1,0,32.53,32.53A32.56,32.56,0,0,0,174.54,176.35Z"/><path class="cls-4" d="M174.54,229.89a21,21,0,1,1,21-21A21,21,0,0,1,174.54,229.89Zm0-40.09a19.09,19.09,0,1,0,19.08,19.08A19.1,19.1,0,0,0,174.54,189.8Z"/><g class="cls-5"><path d="M159.88,208.88A20,20,0,0,1,177.23,189a19.79,19.79,0,0,0-2.69-.21,20,20,0,1,0,0,40.1,19.8,19.8,0,0,0,2.69-.2A20,20,0,0,1,159.88,208.88Z"/></g><path class="cls-4" d="M174.54,229.89a21,21,0,1,1,0-42,21.32,21.32,0,0,1,2.82.21,1,1,0,0,1,.84,1,1,1,0,0,1-.84,1,19.06,19.06,0,0,0,0,37.78,1,1,0,0,1,.84,1,1,1,0,0,1-.84,1A19.75,19.75,0,0,1,174.54,229.89Zm-4.39-39.58a19.09,19.09,0,0,0,0,37.15,21,21,0,0,1,0-37.15Z"/><path class="cls-4" d="M177.23,222.09a13.21,13.21,0,1,1,13.21-13.21A13.22,13.22,0,0,1,177.23,222.09Zm0-24.49a11.28,11.28,0,1,0,11.29,11.28A11.29,11.29,0,0,0,177.23,197.6Z"/><path class="cls-4" d="M366.51,191H228.87a1,1,0,0,1,0-1.93H366.51a1,1,0,0,1,0,1.93Z"/><path class="cls-4" d="M535.94,156.67H505.83a1,1,0,1,1,0-1.92h30.11a1,1,0,1,1,0,1.92Z"/><path class="cls-4" d="M535.94,161.56H505.83a1,1,0,1,1,0-1.93h30.11a1,1,0,1,1,0,1.93Z"/><path class="cls-4" d="M535.23,166.45h-29.4a1,1,0,1,1,0-1.93h29.4a1,1,0,0,1,0,1.93Z"/><path class="cls-4" d="M535.23,171.34H507.42a1,1,0,1,1,0-1.93h27.81a1,1,0,0,1,0,1.93Z"/><path class="cls-4" d="M530.17,144.21H505.83a1,1,0,1,1,0-1.93h24.34a1,1,0,0,1,0,1.93Z"/><path class="cls-4" d="M253.4,153.39H154a1,1,0,0,1,0-1.93H253.4a1,1,0,0,1,0,1.93Z"/><path class="cls-4" d="M374.69,153.39H273.52a1,1,0,0,1,0-1.93H374.69a1,1,0,0,1,0,1.93Z"/><path class="cls-4" d="M474.21,153.39H390.1a1,1,0,0,1,0-1.93h84.11a1,1,0,0,1,0,1.93Z"/><path class="cls-4" d="M462.88,135.64H396.75a1,1,0,0,1,0-1.92h66.13a1,1,0,1,1,0,1.92Z"/><path class="cls-2" d="M531.25,202.46h-31a2,2,0,0,1-1.81-2.83h0a2,2,0,0,1,1.81-1.15h31a2,2,0,0,1,2,2h0A2,2,0,0,1,531.25,202.46Z"/><g class="cls-5"><path d="M512.24,199.63h0a2,2,0,0,1,1.8-1.15H500.23a2,2,0,0,0-1.81,1.15h0a2,2,0,0,0,1.81,2.83H514A2,2,0,0,1,512.24,199.63Z"/></g><path class="cls-4" d="M514,203.42H500.23a3,3,0,0,1,0-5.91H514a1,1,0,1,1,0,1.93,1,1,0,0,0-.93.6h0a1,1,0,0,0,.07,1,1,1,0,0,0,.86.48,1,1,0,1,1,0,1.92Zm-13.81-4a1,1,0,0,0-.93.6,1,1,0,0,0,.06,1,1,1,0,0,0,.87.48h11a3,3,0,0,1,0-2.06Zm12,.19Z"/><path class="cls-4" d="M531.25,203.42h-31a3,3,0,0,1,0-5.91h31a3,3,0,0,1,0,5.91Zm-31-4a1,1,0,0,0-.93.6,1,1,0,0,0,.06,1,1,1,0,0,0,.87.48h31a1,1,0,0,0,0-2.06Z"/><path class="cls-7" d="M497.71,244a21.35,21.35,0,0,0,9.55-2.25l12.45-6.23a6.77,6.77,0,0,0,3.74-6v-1.87a5.09,5.09,0,0,0-5.09-5.1H498.77a4.77,4.77,0,0,0-4.77,4.78V244Z"/><path class="cls-7" d="M535.38,244a21.34,21.34,0,0,0,9.54-2.25l12.46-6.23a6.77,6.77,0,0,0,3.74-6v-1.87a5.09,5.09,0,0,0-5.09-5.1H499a4.77,4.77,0,0,0-4.77,4.78V244Z"/><g class="cls-3"><path d="M535.38,244a21.34,21.34,0,0,0,9.54-2.25l12.46-6.23a6.77,6.77,0,0,0,3.74-6v-1.87a5.09,5.09,0,0,0-5.09-5.1H499a4.77,4.77,0,0,0-4.77,4.78V244Z"/></g><path class="cls-4" d="M535.38,245H494.27a1,1,0,0,1-1-1V227.27a5.75,5.75,0,0,1,5.74-5.74h57a6.07,6.07,0,0,1,6.05,6.06v1.87a7.69,7.69,0,0,1-4.27,6.91l-12.45,6.23A22.48,22.48,0,0,1,535.38,245ZM495.23,243h40.15a20.42,20.42,0,0,0,9.11-2.16L557,234.65a5.78,5.78,0,0,0,3.2-5.19v-1.87a4.13,4.13,0,0,0-4.12-4.13H499a3.82,3.82,0,0,0-3.81,3.81Z"/><path class="cls-7" d="M497.71,244a21.35,21.35,0,0,0,9.55-2.25l12.45-6.23a6.77,6.77,0,0,0,3.74-6v-1.87a5.09,5.09,0,0,0-5.09-5.1H498.77a4.77,4.77,0,0,0-4.77,4.78V244Z"/><path class="cls-4" d="M497.71,245H494a1,1,0,0,1-1-1V227.27a5.75,5.75,0,0,1,5.74-5.74h19.59a6.07,6.07,0,0,1,6.06,6.06v1.87a7.68,7.68,0,0,1-4.28,6.91l-12.45,6.23A22.42,22.42,0,0,1,497.71,245ZM495,243h2.75a20.49,20.49,0,0,0,9.12-2.16l12.45-6.22a5.77,5.77,0,0,0,3.21-5.19v-1.87a4.13,4.13,0,0,0-4.13-4.13H498.77a3.82,3.82,0,0,0-3.81,3.81Z"/><path class="cls-4" d="M523.45,230.42H494a1,1,0,1,1,0-1.92h29.45a1,1,0,1,1,0,1.92Z"/><path class="cls-4" d="M561.12,230.42H529.55a1,1,0,1,1,0-1.92h31.57a1,1,0,1,1,0,1.92Z"/><rect class="cls-2" x="225.7" y="256.81" width="20.52" height="147.53"/><g class="cls-8"><rect x="225.7" y="256.81" width="20.52" height="147.53"/></g><path class="cls-4" d="M246.22,405.3H225.7a1,1,0,0,1-1-1V256.81a1,1,0,0,1,1-1h20.52a1,1,0,0,1,1,1V404.34A1,1,0,0,1,246.22,405.3Zm-19.55-1.93h18.59V257.77H226.67Z"/><path class="cls-2" d="M221.1,371.72h29a4.83,4.83,0,0,1,4.83,4.83v27.78a0,0,0,0,1,0,0H216.27a0,0,0,0,1,0,0V376.55A4.83,4.83,0,0,1,221.1,371.72Z"/><g class="cls-5"><path d="M252.66,371.72H243a2.22,2.22,0,0,1,2.22,2.23v30.39h9.67V374A2.22,2.22,0,0,0,252.66,371.72Z"/></g><path class="cls-4" d="M254.88,405.3H216.27a1,1,0,0,1-1-1V374a3.19,3.19,0,0,1,3.18-3.19h34.17a3.18,3.18,0,0,1,3.18,3.19v30.39A1,1,0,0,1,254.88,405.3Zm-37.65-1.93h36.69V374a1.26,1.26,0,0,0-1.26-1.26H218.49a1.26,1.26,0,0,0-1.26,1.26Z"/><path class="cls-2" d="M219.83,256.81H252.1a0,0,0,0,1,0,0v1.27a6.63,6.63,0,0,1-6.63,6.63h-19a6.63,6.63,0,0,1-6.63-6.63v-1.27A0,0,0,0,1,219.83,256.81Z"/><g class="cls-5"><path d="M247,256.81v4.85a3,3,0,0,1-3.05,3h5.07a3,3,0,0,0,3-3v-4.85Z"/></g><path class="cls-4" d="M249.05,265.68H222.88a4,4,0,0,1-4-4v-4.85a1,1,0,0,1,1-1H252.1a1,1,0,0,1,1,1v4.85A4,4,0,0,1,249.05,265.68Zm-28.26-7.91v3.89a2.1,2.1,0,0,0,2.09,2.09h26.17a2.1,2.1,0,0,0,2.09-2.09v-3.89Z"/><path class="cls-2" d="M232.41,274.54v85.22a3.55,3.55,0,0,0,3.55,3.55h0a3.55,3.55,0,0,0,3.55-3.55V274.54A3.55,3.55,0,0,0,236,271h0A3.55,3.55,0,0,0,232.41,274.54Z"/><path class="cls-4" d="M236,364.27a4.51,4.51,0,0,1-4.51-4.51V274.54a4.51,4.51,0,1,1,9,0v85.22A4.51,4.51,0,0,1,236,364.27ZM236,272a2.59,2.59,0,0,0-2.58,2.59v85.22a2.59,2.59,0,0,0,5.17,0V274.54A2.59,2.59,0,0,0,236,272Z"/><path class="cls-2" d="M236,271a3.65,3.65,0,0,0-1.15.19,3.55,3.55,0,0,1,2.4,3.36v85.22a3.53,3.53,0,0,1-2.4,3.35,3.39,3.39,0,0,0,1.15.2,3.55,3.55,0,0,0,3.55-3.55V274.54A3.55,3.55,0,0,0,236,271Z"/><g class="cls-5"><path d="M236,271a3.65,3.65,0,0,0-1.15.19,3.55,3.55,0,0,1,2.4,3.36v85.22a3.53,3.53,0,0,1-2.4,3.35,3.39,3.39,0,0,0,1.15.2,3.55,3.55,0,0,0,3.55-3.55V274.54A3.55,3.55,0,0,0,236,271Z"/></g><path class="cls-4" d="M236,364.27a4.35,4.35,0,0,1-1.46-.25,1,1,0,0,1-.65-.91,1,1,0,0,1,.65-.91,2.59,2.59,0,0,0,1.75-2.44V274.54a2.58,2.58,0,0,0-1.75-2.44,1,1,0,0,1,0-1.83A4.6,4.6,0,0,1,236,270a4.51,4.51,0,0,1,4.51,4.51v85.22A4.51,4.51,0,0,1,236,364.27Zm1.82-91.57a4.56,4.56,0,0,1,.39,1.84v85.22a4.48,4.48,0,0,1-.39,1.83,2.56,2.56,0,0,0,.77-1.83V274.54A2.6,2.6,0,0,0,237.78,272.7Z"/><path class="cls-4" d="M249.74,377.13H220a1,1,0,0,1,0-1.93h29.7a1,1,0,1,1,0,1.93Z"/><path class="cls-2" d="M180.62,256.81H582.26a6.41,6.41,0,0,0,6.41-6.41h0a6.41,6.41,0,0,0-6.41-6.41H180.62a6.41,6.41,0,0,0-6.41,6.41h0A6.41,6.41,0,0,0,180.62,256.81Z"/><g class="cls-5"><path d="M180.62,256.81H582.26a6.41,6.41,0,0,0,6.41-6.41h0a6.41,6.41,0,0,0-6.41-6.41H180.62a6.41,6.41,0,0,0-6.41,6.41h0A6.41,6.41,0,0,0,180.62,256.81Z"/></g><path class="cls-4" d="M582.26,257.77H180.62a7.37,7.37,0,0,1,0-14.74H582.26a7.37,7.37,0,1,1,0,14.74ZM180.62,245a5.45,5.45,0,1,0,0,10.89H582.26a5.45,5.45,0,0,0,0-10.89Z"/><path class="cls-2" d="M112.48,256.81H514.12a6.41,6.41,0,0,0,6.41-6.41h0a6.41,6.41,0,0,0-6.41-6.41H112.48a6.41,6.41,0,0,0-6.41,6.41h0A6.41,6.41,0,0,0,112.48,256.81Z"/><path class="cls-4" d="M514.12,257.77H112.48a7.37,7.37,0,0,1,0-14.74H514.12a7.37,7.37,0,1,1,0,14.74ZM112.48,245a5.45,5.45,0,1,0,0,10.89H514.12a5.45,5.45,0,0,0,0-10.89Z"/><path class="cls-4" d="M500.74,251.36H125.36a1,1,0,1,1,0-1.92H500.74a1,1,0,0,1,0,1.92Z"/><rect class="cls-2" x="146.67" y="256.81" width="20.52" height="147.53"/><path class="cls-4" d="M167.19,405.3H146.67a1,1,0,0,1-1-1V256.81a1,1,0,0,1,1-1h20.52a1,1,0,0,1,1,1V404.34A1,1,0,0,1,167.19,405.3Zm-19.55-1.93h18.59V257.77H147.64Z"/><path class="cls-2" d="M142.07,371.72h29a4.83,4.83,0,0,1,4.83,4.83v27.78a0,0,0,0,1,0,0H137.24a0,0,0,0,1,0,0V376.55A4.83,4.83,0,0,1,142.07,371.72Z"/><g class="cls-5"><path d="M173.63,371.72H164a2.22,2.22,0,0,1,2.22,2.23v30.39h9.67V374A2.22,2.22,0,0,0,173.63,371.72Z"/></g><path class="cls-4" d="M175.85,405.3H137.24a1,1,0,0,1-1-1V374a3.19,3.19,0,0,1,3.19-3.19h34.16a3.19,3.19,0,0,1,3.19,3.19v30.39A1,1,0,0,1,175.85,405.3Zm-37.64-1.93h36.68V374a1.26,1.26,0,0,0-1.26-1.26H139.47a1.25,1.25,0,0,0-1.26,1.26Z"/><path class="cls-2" d="M140.8,256.81h32.27a0,0,0,0,1,0,0v1.27a6.63,6.63,0,0,1-6.63,6.63h-19a6.63,6.63,0,0,1-6.63-6.63v-1.27A0,0,0,0,1,140.8,256.81Z"/><g class="cls-5"><path d="M168,256.81v4.85a3.05,3.05,0,0,1-3.06,3H170a3,3,0,0,0,3-3v-4.85Z"/></g><path class="cls-4" d="M170,265.68H143.85a4,4,0,0,1-4-4v-4.85a1,1,0,0,1,1-1h32.27a1,1,0,0,1,1,1v4.85A4,4,0,0,1,170,265.68Zm-28.26-7.91v3.89a2.1,2.1,0,0,0,2.09,2.09H170a2.1,2.1,0,0,0,2.09-2.09v-3.89Z"/><path class="cls-4" d="M156.93,364.27a4.52,4.52,0,0,1-4.51-4.51V274.54a4.52,4.52,0,0,1,9,0v85.22A4.52,4.52,0,0,1,156.93,364.27Zm0-92.32a2.59,2.59,0,0,0-2.58,2.59v85.22a2.59,2.59,0,0,0,5.17,0V274.54A2.59,2.59,0,0,0,156.93,272Z"/><path class="cls-2" d="M156.93,271a3.65,3.65,0,0,0-1.15.19,3.55,3.55,0,0,1,2.4,3.36v85.22a3.53,3.53,0,0,1-2.4,3.35,3.39,3.39,0,0,0,1.15.2,3.55,3.55,0,0,0,3.55-3.55V274.54A3.55,3.55,0,0,0,156.93,271Z"/><g class="cls-5"><path d="M156.93,271a3.65,3.65,0,0,0-1.15.19,3.55,3.55,0,0,1,2.4,3.36v85.22a3.53,3.53,0,0,1-2.4,3.35,3.39,3.39,0,0,0,1.15.2,3.55,3.55,0,0,0,3.55-3.55V274.54A3.55,3.55,0,0,0,156.93,271Z"/></g><path class="cls-4" d="M156.93,364.27a4.35,4.35,0,0,1-1.46-.25,1,1,0,0,1-.65-.91,1,1,0,0,1,.65-.91,2.59,2.59,0,0,0,1.75-2.44V274.54a2.58,2.58,0,0,0-1.75-2.44,1,1,0,0,1,0-1.83,4.6,4.6,0,0,1,1.46-.24,4.52,4.52,0,0,1,4.52,4.51v85.22A4.52,4.52,0,0,1,156.93,364.27Zm1.82-91.57a4.4,4.4,0,0,1,.39,1.84v85.22a4.48,4.48,0,0,1-.39,1.83,2.52,2.52,0,0,0,.77-1.83V274.54A2.56,2.56,0,0,0,158.75,272.7Z"/><path class="cls-4" d="M170.71,377.13H141a1,1,0,0,1,0-1.93h29.7a1,1,0,1,1,0,1.93Z"/><rect class="cls-2" x="530.38" y="256.81" width="20.52" height="147.53"/><g class="cls-8"><rect x="530.38" y="256.81" width="20.52" height="147.53"/></g><path class="cls-4" d="M550.9,405.3H530.38a1,1,0,0,1-1-1V256.81a1,1,0,0,1,1-1H550.9a1,1,0,0,1,1,1V404.34A1,1,0,0,1,550.9,405.3Zm-19.56-1.93h18.59V257.77H531.34Z"/><path class="cls-2" d="M525.78,371.72h29a4.83,4.83,0,0,1,4.83,4.83v27.78a0,0,0,0,1,0,0H520.95a0,0,0,0,1,0,0V376.55A4.83,4.83,0,0,1,525.78,371.72Z"/><g class="cls-5"><path d="M557.33,371.72h-9.66a2.23,2.23,0,0,1,2.22,2.23v30.39h9.67V374A2.23,2.23,0,0,0,557.33,371.72Z"/></g><path class="cls-4" d="M559.56,405.3H521a1,1,0,0,1-1-1V374a3.19,3.19,0,0,1,3.19-3.19h34.16a3.19,3.19,0,0,1,3.19,3.19v30.39A1,1,0,0,1,559.56,405.3Zm-37.65-1.93h36.68V374a1.25,1.25,0,0,0-1.26-1.26H523.17a1.26,1.26,0,0,0-1.26,1.26Z"/><path class="cls-2" d="M524.5,256.81h32.27a0,0,0,0,1,0,0v1.27a6.63,6.63,0,0,1-6.63,6.63h-19a6.63,6.63,0,0,1-6.63-6.63v-1.27A0,0,0,0,1,524.5,256.81Z"/><g class="cls-5"><path d="M551.71,256.81v4.85a3,3,0,0,1-3.05,3h5.06a3,3,0,0,0,3-3v-4.85Z"/></g><path class="cls-4" d="M553.72,265.68H527.55a4,4,0,0,1-4-4v-4.85a1,1,0,0,1,1-1h32.27a1,1,0,0,1,1,1v4.85A4,4,0,0,1,553.72,265.68Zm-28.26-7.91v3.89a2.1,2.1,0,0,0,2.09,2.09h26.17a2.1,2.1,0,0,0,2.09-2.09v-3.89Z"/><path class="cls-2" d="M537.09,274.54v85.22a3.55,3.55,0,0,0,3.55,3.55h0a3.55,3.55,0,0,0,3.55-3.55V274.54a3.55,3.55,0,0,0-3.55-3.55h0A3.55,3.55,0,0,0,537.09,274.54Z"/><path class="cls-4" d="M540.64,364.27a4.51,4.51,0,0,1-4.51-4.51V274.54a4.51,4.51,0,1,1,9,0v85.22A4.51,4.51,0,0,1,540.64,364.27Zm0-92.32a2.59,2.59,0,0,0-2.59,2.59v85.22a2.59,2.59,0,0,0,5.17,0V274.54A2.59,2.59,0,0,0,540.64,272Z"/><path class="cls-2" d="M540.64,271a3.6,3.6,0,0,0-1.15.19,3.55,3.55,0,0,1,2.39,3.36v85.22a3.54,3.54,0,0,1-2.39,3.35,3.35,3.35,0,0,0,1.15.2,3.55,3.55,0,0,0,3.55-3.55V274.54A3.55,3.55,0,0,0,540.64,271Z"/><g class="cls-5"><path d="M540.64,271a3.6,3.6,0,0,0-1.15.19,3.55,3.55,0,0,1,2.39,3.36v85.22a3.54,3.54,0,0,1-2.39,3.35,3.35,3.35,0,0,0,1.15.2,3.55,3.55,0,0,0,3.55-3.55V274.54A3.55,3.55,0,0,0,540.64,271Z"/></g><path class="cls-4" d="M540.64,364.27a4.27,4.27,0,0,1-1.46-.25,1,1,0,0,1-.66-.91,1,1,0,0,1,.65-.91,2.58,2.58,0,0,0,1.75-2.44V274.54a2.57,2.57,0,0,0-1.75-2.44,1,1,0,0,1,0-1.83,4.62,4.62,0,0,1,1.47-.24,4.51,4.51,0,0,1,4.51,4.51v85.22A4.51,4.51,0,0,1,540.64,364.27Zm1.82-91.57a4.56,4.56,0,0,1,.39,1.84v85.22a4.48,4.48,0,0,1-.39,1.83,2.55,2.55,0,0,0,.76-1.83V274.54A2.59,2.59,0,0,0,542.46,272.7Z"/><path class="cls-4" d="M554.42,377.13h-29.7a1,1,0,1,1,0-1.93h29.7a1,1,0,0,1,0,1.93Z"/><rect class="cls-2" x="451.35" y="256.81" width="20.52" height="147.53"/><path class="cls-4" d="M471.87,405.3H451.35a1,1,0,0,1-1-1V256.81a1,1,0,0,1,1-1h20.52a1,1,0,0,1,1,1V404.34A1,1,0,0,1,471.87,405.3Zm-19.56-1.93h18.6V257.77h-18.6Z"/><path class="cls-2" d="M446.75,371.72h29a4.83,4.83,0,0,1,4.83,4.83v27.78a0,0,0,0,1,0,0H441.92a0,0,0,0,1,0,0V376.55A4.83,4.83,0,0,1,446.75,371.72Z"/><g class="cls-5"><path d="M478.31,371.72h-9.67a2.23,2.23,0,0,1,2.22,2.23v30.39h9.67V374A2.23,2.23,0,0,0,478.31,371.72Z"/></g><path class="cls-4" d="M480.53,405.3H441.92a1,1,0,0,1-1-1V374a3.19,3.19,0,0,1,3.19-3.19h34.17a3.19,3.19,0,0,1,3.18,3.19v30.39A1,1,0,0,1,480.53,405.3Zm-37.65-1.93h36.68V374a1.25,1.25,0,0,0-1.25-1.26H444.14a1.26,1.26,0,0,0-1.26,1.26Z"/><path class="cls-2" d="M445.47,256.81h32.27a0,0,0,0,1,0,0v1.27a6.63,6.63,0,0,1-6.63,6.63h-19a6.63,6.63,0,0,1-6.63-6.63v-1.27A0,0,0,0,1,445.47,256.81Z"/><g class="cls-5"><path d="M472.68,256.81v4.85a3,3,0,0,1-3.05,3h5.06a3.05,3.05,0,0,0,3.06-3v-4.85Z"/></g><path class="cls-4" d="M474.69,265.68H448.52a4,4,0,0,1-4-4v-4.85a1,1,0,0,1,1-1h32.28a1,1,0,0,1,1,1v4.85A4,4,0,0,1,474.69,265.68Zm-28.25-7.91v3.89a2.09,2.09,0,0,0,2.08,2.09h26.17a2.09,2.09,0,0,0,2.09-2.09v-3.89Z"/><path class="cls-4" d="M461.61,364.27a4.51,4.51,0,0,1-4.51-4.51V274.54a4.51,4.51,0,1,1,9,0v85.22A4.51,4.51,0,0,1,461.61,364.27Zm0-92.32a2.59,2.59,0,0,0-2.59,2.59v85.22a2.59,2.59,0,0,0,5.17,0V274.54A2.59,2.59,0,0,0,461.61,272Z"/><path class="cls-2" d="M461.61,271a3.65,3.65,0,0,0-1.15.19,3.56,3.56,0,0,1,2.4,3.36v85.22a3.55,3.55,0,0,1-2.4,3.35,3.39,3.39,0,0,0,1.15.2,3.55,3.55,0,0,0,3.55-3.55V274.54A3.55,3.55,0,0,0,461.61,271Z"/><g class="cls-5"><path d="M461.61,271a3.65,3.65,0,0,0-1.15.19,3.56,3.56,0,0,1,2.4,3.36v85.22a3.55,3.55,0,0,1-2.4,3.35,3.39,3.39,0,0,0,1.15.2,3.55,3.55,0,0,0,3.55-3.55V274.54A3.55,3.55,0,0,0,461.61,271Z"/></g><path class="cls-4" d="M461.61,364.27a4.31,4.31,0,0,1-1.46-.25,1,1,0,0,1-.65-.91,1,1,0,0,1,.65-.91,2.58,2.58,0,0,0,1.74-2.44V274.54a2.58,2.58,0,0,0-1.74-2.44,1,1,0,0,1,0-1.83,4.56,4.56,0,0,1,1.46-.24,4.51,4.51,0,0,1,4.51,4.51v85.22A4.51,4.51,0,0,1,461.61,364.27Zm1.82-91.57a4.56,4.56,0,0,1,.39,1.84v85.22a4.48,4.48,0,0,1-.39,1.83,2.55,2.55,0,0,0,.76-1.83V274.54A2.59,2.59,0,0,0,463.43,272.7Z"/><path class="cls-4" d="M475.39,377.13h-29.7a1,1,0,0,1,0-1.93h29.7a1,1,0,0,1,0,1.93Z"/><path class="cls-2" d="M545.87,416.55a8.23,8.23,0,0,1-10.65.32,8.23,8.23,0,1,0,13-10,9.38,9.38,0,0,0-1-.92A8.23,8.23,0,0,1,545.87,416.55Z"/><path class="cls-2" d="M387,196.92h0a2,2,0,0,0-.14,2.81l21.42,23.73a5.28,5.28,0,0,1-.38,7.47l-32.78,29.59a5.3,5.3,0,0,1-7.48-.38l-21.42-23.73a2,2,0,0,0-2.81-.14l-.8.72a20.09,20.09,0,0,0-1.45,28.37l14.56,16.13a38.34,38.34,0,0,0,26.08,12.57L412.83,296,529,424.66A18,18,0,0,0,554.36,426h0a18,18,0,0,0,1.29-25.35L439.48,271.92l0,0,.58-30.64a38.31,38.31,0,0,0-9.87-26.42l-14.87-16.47A20.09,20.09,0,0,0,387,196.92ZM547.65,418.53a8.23,8.23,0,1,1,.6-11.62A8.23,8.23,0,0,1,547.65,418.53Z"/><g class="cls-5"><path d="M402.4,284.69l-7-7.8a3.14,3.14,0,0,1,.22-4.44l22.49-20.3a3.14,3.14,0,0,1,4.44.23l7,7.79-9.09-10.07a3.16,3.16,0,0,0-4.45-.23l-22.48,20.3a3.16,3.16,0,0,0-.23,4.45Z"/></g><g class="cls-5"><path d="M392.23,197.13l19.06,21.11a7.26,7.26,0,0,1-.53,10.26l-38.48,34.75a7.27,7.27,0,0,1-10.27-.53L343,241.62a3.69,3.69,0,0,1,.16-5.1l.26-.25a1.92,1.92,0,0,1,2.81.14l21.46,23.77a5.37,5.37,0,0,0,7.59.39l32.62-29.44a5.38,5.38,0,0,0,.38-7.59l-21.46-23.78a2.33,2.33,0,0,1,.37-3h0A3.67,3.67,0,0,1,392.23,197.13Z"/></g><path class="cls-4" d="M370.93,273.57a1,1,0,0,1-.65-1.68l49.28-44.49a1,1,0,0,1,1.29,1.43l-49.27,44.49A1,1,0,0,1,370.93,273.57Z"/><path class="cls-4" d="M402.4,285.65a1,1,0,0,1-.71-.32l-9.09-10.07a4.09,4.09,0,0,1-1.06-3,4.14,4.14,0,0,1,1.35-2.85l22.48-20.29a4.12,4.12,0,0,1,5.81.29l9.1,10.07a1,1,0,0,1-.07,1.36,1,1,0,0,1-1.36-.06l-9.1-10.08a2.18,2.18,0,0,0-1.51-.71,2.14,2.14,0,0,0-1.58.56l-22.48,20.29A2.19,2.19,0,0,0,394,274L403.12,284a1,1,0,0,1-.72,1.61Z"/><path class="cls-4" d="M367.41,266.09l-.43,0a8.2,8.2,0,0,1-5.69-2.7L349,249.7a1,1,0,0,1,.07-1.36,1,1,0,0,1,1.36.07l12.34,13.67a6.31,6.31,0,0,0,8.91.45l38.49-34.74a6.32,6.32,0,0,0,.45-8.91l-15.43-17.09a1,1,0,1,1,1.43-1.3L412,217.59a8.25,8.25,0,0,1-.59,11.63L372.92,264A8.16,8.16,0,0,1,367.41,266.09Z"/><g class="cls-5"><path d="M407.59,200.4l16.53,18.31a4.35,4.35,0,0,0,6.16.31h0l-22.43-18.88A.18.18,0,0,0,407.59,200.4Z"/></g><path class="cls-4" d="M427.36,221.11h-.27a5.28,5.28,0,0,1-3.69-1.75L405.07,199a1,1,0,1,1,1.43-1.29l18.33,20.31a3.4,3.4,0,0,0,4.8.25,1,1,0,0,1,1.29,1.43A5.27,5.27,0,0,1,427.36,221.11Z"/><g class="cls-5"><path d="M344.29,257.56l16.52,18.3a4.35,4.35,0,0,1-.31,6.16h0L344,257.78A.18.18,0,0,1,344.29,257.56Z"/></g><path class="cls-4" d="M360.5,283a1,1,0,0,1-.65-1.68A3.39,3.39,0,0,0,361,279a3.34,3.34,0,0,0-.87-2.45L341.76,256.2a1,1,0,0,1,1.43-1.3l18.34,20.32a5.33,5.33,0,0,1-.39,7.52A1,1,0,0,1,360.5,283Z"/><path class="cls-4" d="M542.35,431.54c-.33,0-.66,0-1,0a18.8,18.8,0,0,1-13.07-6.22L412.38,296.92,381.71,295A39.08,39.08,0,0,1,355,282.13L340.42,266a21.07,21.07,0,0,1,1.52-29.73l.8-.73a3,3,0,0,1,2.13-.75,2.93,2.93,0,0,1,2,1l21.42,23.73a4.34,4.34,0,0,0,6.12.31l32.77-29.59a4.34,4.34,0,0,0,.31-6.12l-21.42-23.73a3,3,0,0,1,.21-4.16,21.05,21.05,0,0,1,29.73,1.51l14.88,16.48a39.2,39.2,0,0,1,10.12,27.08l-.58,30.3L556.36,400a18.9,18.9,0,0,1-14,31.58ZM344.71,236.72a1,1,0,0,0-.68.26l-.8.73a19.14,19.14,0,0,0-1.38,27l14.55,16.12a37.17,37.17,0,0,0,25.43,12.26L412.89,295a1,1,0,0,1,.66.31L529.72,424a17,17,0,0,0,25.22-22.76L438.76,272.57a.94.94,0,0,1-.24-.7,1,1,0,0,1,0-.17l.58-30.46a37.22,37.22,0,0,0-9.62-25.75L414.62,199a19.11,19.11,0,0,0-27-1.38l-.64-.72.64.72a1,1,0,0,0-.07,1.44L409,222.81a6.26,6.26,0,0,1-.45,8.84l-32.77,29.59a6.27,6.27,0,0,1-8.84-.45l-21.42-23.73a1,1,0,0,0-.71-.34Z"/><path class="cls-7" d="M533,402.27a13.67,13.67,0,1,0,19.31,1A13.67,13.67,0,0,0,533,402.27Zm14.67,16.26a8.23,8.23,0,1,1,.6-11.62A8.23,8.23,0,0,1,547.65,418.53Z"/><path class="cls-4" d="M542.16,427.06l-.77,0a14.52,14.52,0,0,1-10.11-4.81h0a14.62,14.62,0,1,1,10.88,4.83Zm0-27.35a12.71,12.71,0,0,0-9.41,21.23h0a12.71,12.71,0,1,0,10.08-21.21Z"/><path class="cls-4" d="M542.15,421.61h-.48a9.29,9.29,0,1,1,.48,0Zm0-16.45a7.26,7.26,0,0,0-5.38,12.13h0a7.26,7.26,0,1,0,5.76-12.12Z"/><path class="cls-4" d="M508.39,355.6a1,1,0,0,1-.71-.32l-65.15-72.16a15.43,15.43,0,0,1-4-9.78l-.05-1.38a1,1,0,1,1,1.93-.07l.05,1.38a13.45,13.45,0,0,0,3.47,8.56L509.1,354a1,1,0,0,1-.71,1.61Z"/><path class="cls-4" d="M552.29,404.22a1,1,0,0,1-.72-.31l-40.73-45.12a1,1,0,1,1,1.43-1.29L553,402.61a1,1,0,0,1-.07,1.36A.92.92,0,0,1,552.29,404.22Z"/><path class="cls-4" d="M427,306.22a1,1,0,0,1-.72-.32l-4.08-4.52a13.58,13.58,0,0,0-9.38-4.44,1,1,0,1,1,.09-1.92,15.52,15.52,0,0,1,10.72,5.06l4.08,4.53a1,1,0,0,1-.07,1.36A1,1,0,0,1,427,306.22Z"/><path class="cls-4" d="M495.89,382.56a1,1,0,0,1-.72-.32l-66-73.11a1,1,0,1,1,1.43-1.29l66,73.11a1,1,0,0,1-.07,1.36A1,1,0,0,1,495.89,382.56Z"/><path class="cls-4" d="M532,422.55a1,1,0,0,1-.71-.32L498.58,386a1,1,0,1,1,1.43-1.3l32.7,36.22a1,1,0,0,1-.07,1.36A1,1,0,0,1,532,422.55Z"/><path class="cls-4" d="M511.64,383.75h-.21a4.16,4.16,0,0,1-2.87-1.36L436,302a4.15,4.15,0,0,1,.3-5.85,4.15,4.15,0,0,1,5.85.3l72.57,80.39a4.14,4.14,0,0,1-.3,5.85A4.1,4.1,0,0,1,511.64,383.75ZM439.06,296.1a3.13,3.13,0,0,0-2.32,5.22l72.58,80.39a3.11,3.11,0,0,0,4.41.22h0a3.12,3.12,0,0,0,.23-4.41l-72.57-80.39A3.14,3.14,0,0,0,439.06,296.1Z"/><g class="cls-5"><path d="M514.07,382.31h0a3.63,3.63,0,0,1-5.13-.26l-72.57-80.39a3.63,3.63,0,0,1,.26-5.13h0a3.63,3.63,0,0,1,5.13.26l72.58,80.39A3.64,3.64,0,0,1,514.07,382.31Z"/></g><path class="cls-4" d="M511.64,383.75h-.21a4.16,4.16,0,0,1-2.87-1.36L436,302a4.15,4.15,0,0,1,.3-5.85,4.15,4.15,0,0,1,5.85.3l72.57,80.39a4.14,4.14,0,0,1-.3,5.85A4.1,4.1,0,0,1,511.64,383.75ZM439.06,296.1a3.13,3.13,0,0,0-2.32,5.22l72.58,80.39a3.11,3.11,0,0,0,4.41.22h0a3.12,3.12,0,0,0,.23-4.41l-72.57-80.39A3.14,3.14,0,0,0,439.06,296.1Z"/><path class="cls-7" d="M512.45,380.51h0a3.63,3.63,0,0,1-5.13-.26l-70.95-78.59a3.63,3.63,0,0,1,.26-5.13h0a3.63,3.63,0,0,1,5.13.26l71,78.59A3.63,3.63,0,0,1,512.45,380.51Z"/><path class="cls-4" d="M510,382.41h-.24a4.61,4.61,0,0,1-3.18-1.51l-71-78.59a4.6,4.6,0,0,1,6.83-6.17l70.95,78.59a4.59,4.59,0,0,1-3.41,7.68Zm-71-85.85a2.64,2.64,0,0,0-2.66,2.53,2.6,2.6,0,0,0,.68,1.92L508,379.6a2.65,2.65,0,0,0,1.85.88,2.6,2.6,0,0,0,1.92-.68A2.68,2.68,0,0,0,512,376l-70.95-78.58A2.66,2.66,0,0,0,439.06,296.56Z"/><g class="cls-5"><path d="M545.87,416.55a8.23,8.23,0,0,1-10.65.32,8.23,8.23,0,1,0,13-10,9.38,9.38,0,0,0-1-.92A8.23,8.23,0,0,1,545.87,416.55Z"/></g><path class="cls-4" d="M542.15,421.61h-.48a9.15,9.15,0,0,1-6.35-3,8.81,8.81,0,0,1-.91-1.18,1,1,0,0,1,1.41-1.28,7.26,7.26,0,0,0,10.64-9.61,1,1,0,0,1,.17-1.23.94.94,0,0,1,1.24,0,8.82,8.82,0,0,1,1.09,1,9.19,9.19,0,0,1-6.81,15.35Zm-1-2c.21,0,.43.06.65.07a7.26,7.26,0,0,0,7.62-6.89c0-.22,0-.43,0-.65a9.26,9.26,0,0,1-8.28,7.47Z"/></g></g></svg>