<svg xmlns="http://www.w3.org/2000/svg" width="66" height="65" fill="none"><path fill="url(#a)" d="M32.5 0C14.57 0 0 14.55 0 32.5S14.56 65 32.5 65c17.96 0 32.52-14.55 32.52-32.5S50.46 0 32.52 0zm0 63.37c-17.05 0-30.87-13.82-30.87-30.87S15.45 1.62 32.5 1.62c17.07 0 30.9 13.83 30.9 30.88 0 17.05-13.83 30.87-30.9 30.87z"/><path fill="#333" d="M63.63 32.5c0 17.18-13.94 31.1-31.12 31.1-17.17 0-31.1-13.92-31.1-31.1S15.32 1.4 32.5 1.4c17.2 0 31.13 13.92 31.13 31.1z"/><path fill="url(#b)" d="M61.77 30.88c0 17.05-13.83 30.87-30.9 30.87C13.84 61.75 0 47.93 0 30.88 0 13.82 13.83 0 30.88 0c17.06 0 30.9 13.82 30.9 30.88z" transform="translate(1.627 1.625)"/><path fill="url(#c)" d="M41.4 20.7c0 11.43-9.26 20.7-20.7 20.7C9.28 41.4 0 32.13 0 20.7S9.27 0 20.7 0c11.44 0 20.7 9.27 20.7 20.7z" transform="translate(11.804 11.801)"/><path d="M33.34 11.24l2.15-5.7v5.7h1.62V3.08h-2.45l-2.23 5.84h.02l-2.24-5.84h-2.45v8.16h1.63v-5.7l2.15 5.7h1.8zm22.42 3.66l-2.8 4.07 4.4-2.16 1.18 1.44-6.9 3.46-1.4-1.7L52.93 16l-.02-.02-4.44 1.9-1.4-1.67 4.64-6.17 1.2 1.43-2.93 3.92 4.5-2 1.3 1.52z"/><path fill="#333" d="M18.05 13.34c-.66-.64-1.67-.83-2.63-.24.2-.47.1-.95.02-1.22-.4-.75-.56-.84-.9-1.12-1.1-.92-2.25-.14-3.07.84L7.5 16.35l6.25 5.25 4.2-5c.96-1.14 1.1-2.28.1-3.26zm-8.1 2.3l2.4-2.86c.27-.33.9-.32 1.3.02.44.37.44.9.15 1.25l-2.37 2.82-1.48-1.24zm6.6.46l-2.5 2.98-1.56-1.32 2.5-3c.3-.33.92-.43 1.35-.07.48.4.53 1 .2 1.4z"/><path fill="url(#d)" d="M5.57 8.16l2.15-5.7v5.7h1.63V0H6.9L4.67 5.84h.02L2.45 0H0v8.16h1.63v-5.7l2.15 5.7h1.8z" transform="translate(27.786 2.764)"/><path fill="url(#e)" d="M8.7 4.87L5.93 8.94l4.38-2.16 1.2 1.43-6.9 3.47-1.4-1.7 2.67-4.02v-.02L1.4 7.83 0 6.16 4.65 0l1.2 1.43-2.92 3.92 4.5-2 1.28 1.52z" transform="translate(47.063 9.484)"/><path fill="url(#f)" d="M10.56 3c-.65-.65-1.67-.84-2.62-.25.18-.47.1-.95 0-1.2C7.55.78 7.4.68 7.07.4 5.96-.5 4.8.28 4 1.27L0 6l6.26 5.26 4.2-5c.96-1.15 1.1-2.3.1-3.27zm-8.1 2.28l2.4-2.85c.27-.33.9-.32 1.3.02.44.37.45.9.15 1.26L3.95 6.53 2.46 5.28zm6.6.48l-2.5 2.97-1.55-1.3 2.52-3c.28-.35.92-.45 1.34-.1.5.42.54 1.03.2 1.43z" transform="translate(7.194 10.188)"/><path fill="url(#g)" d="M0 20C0 8.97 8.96 0 20.02 0c11.05 0 20 8.96 20 20 0 11.06-8.95 20.02-20 20.02C8.96 40.02 0 31.06 0 20.02z" transform="translate(12.493 12.488)"/><path fill="url(#h)" d="M0 19.44C0 8.7 8.7 0 19.44 0c10.74 0 19.44 8.7 19.44 19.44 0 10.73-8.7 19.43-19.44 19.43C8.7 38.87 0 30.17 0 19.44z" transform="translate(13.069 13.063)"/><path fill="url(#i)" d="M0 19.47h19.47V0C8.72 0 0 8.7 0 19.47z" transform="translate(13.038 13.035)"/><path fill="url(#j)" d="M0 0v19.47c10.75 0 19.47-8.72 19.47-19.47H0z" transform="translate(32.51 32.5)"/><path fill="url(#k)" d="M39.26 19.28H19.98V0h-.7v19.28H0v.7h19.3v19.27h.68V19.97h19.28v-.7z" transform="translate(12.877 12.873)"/><path fill="url(#l)" d="M0 .35C10.27.53 18.56 8.8 18.74 19.08h.35C18.9 8.62 10.45.18 0 0v.35z" transform="translate(32.855 13.072)"/><path fill="#C2D7E8" d="M13.4 32.15c.17-10.28 8.47-18.58 18.76-18.76v-.36c-10.48.2-18.93 8.64-19.12 19.1h.35z"/><path fill="url(#m)" d="M19.1 18.74C8.8 18.54.52 10.27.34 0H0c.18 10.46 8.63 18.9 19.1 19.08v-.34z" transform="translate(13.077 32.844)"/><path fill="#12404F" d="M51.6 32.84c-.2 10.27-8.47 18.56-18.75 18.74v.35c10.47-.2 18.9-8.63 19.1-19.1h-.35z"/><path fill="url(#n)" d="M18.74 0v18.73H0v.37h19.1V0h-.36z" transform="translate(13.059 13.045)"/><path fill="url(#o)" d="M18.55 18.87V.37H0V0h18.9v18.87h-.35z" transform="translate(13.214 32.875)"/><path fill="url(#p)" d="M.36 18.87V.37h18.5V0H0v18.87h.36z" transform="translate(32.886 32.875)"/><path fill="url(#q)" d="M.36 0v18.5h18.5v.37H0V0h.36z" transform="translate(32.886 13.209)"/><defs><linearGradient id="a" x2="1" gradientUnits="userSpaceOnUse" gradientTransform="matrix(68.978 66.637 66.656 -68.959 -38.087 30.975)"><stop stop-color="#DFF4FF"/><stop offset=".098" stop-color="#D6EAF5"/><stop offset=".268" stop-color="#BFD0D9"/><stop offset=".488" stop-color="#98A5AC"/><stop offset=".747" stop-color="#646B6E"/><stop offset="1" stop-color="#2B2B2B"/></linearGradient><radialGradient id="b" cx=".5" cy=".5" r=".5" gradientUnits="userSpaceOnUse" gradientTransform="translate(-48.219 46.699) scale(92.374 -92.348)"><stop stop-color="#fff"/><stop offset=".306" stop-color="#A8A8A8"/><stop offset=".646" stop-color="#4F4F4F"/><stop offset=".885" stop-color="#161616"/><stop offset="1"/></radialGradient><linearGradient id="c" x2="1" gradientUnits="userSpaceOnUse" gradientTransform="matrix(-43.932 -42.441 -42.453 43.92 65.668 21.67)"><stop stop-color="#DFF4FF"/><stop offset=".086" stop-color="#D6EAF5"/><stop offset=".233" stop-color="#BED0D9"/><stop offset=".424" stop-color="#96A4AC"/><stop offset=".652" stop-color="#5F686D"/><stop offset=".907" stop-color="#1A1D1E"/><stop offset="1"/></linearGradient><radialGradient id="d" cx=".5" cy=".5" r=".5" gradientUnits="userSpaceOnUse" gradientTransform="translate(-147.467 105.633) scale(221.962 -221.9)"><stop stop-color="#fff"/><stop offset=".31" stop-color="#FDFDFD"/><stop offset=".451" stop-color="#F6F6F6"/><stop offset=".557" stop-color="#E9E9E9"/><stop offset=".646" stop-color="#D7D7D7"/><stop offset=".724" stop-color="#BFBFBF"/><stop offset=".794" stop-color="#A2A2A2"/><stop offset=".859" stop-color="#808080"/><stop offset=".92" stop-color="#575757"/><stop offset=".975" stop-color="#2B2B2B"/><stop offset="1" stop-color="#141414"/></radialGradient><radialGradient id="e" cx=".5" cy=".5" r=".5" gradientUnits="userSpaceOnUse" gradientTransform="translate(-166.758 98.921) scale(221.981 -221.919)"><stop stop-color="#fff"/><stop offset=".31" stop-color="#FDFDFD"/><stop offset=".451" stop-color="#F6F6F6"/><stop offset=".557" stop-color="#E9E9E9"/><stop offset=".646" stop-color="#D7D7D7"/><stop offset=".724" stop-color="#BFBFBF"/><stop offset=".794" stop-color="#A2A2A2"/><stop offset=".859" stop-color="#808080"/><stop offset=".92" stop-color="#575757"/><stop offset=".975" stop-color="#2B2B2B"/><stop offset="1" stop-color="#141414"/></radialGradient><radialGradient id="f" cx=".5" cy=".5" r=".5" gradientUnits="userSpaceOnUse" gradientTransform="translate(-126.981 98.271) scale(222.15 -222.088)"><stop stop-color="#fff"/><stop offset=".31" stop-color="#FDFDFD"/><stop offset=".451" stop-color="#F6F6F6"/><stop offset=".557" stop-color="#E9E9E9"/><stop offset=".646" stop-color="#D7D7D7"/><stop offset=".724" stop-color="#BFBFBF"/><stop offset=".794" stop-color="#A2A2A2"/><stop offset=".859" stop-color="#808080"/><stop offset=".92" stop-color="#575757"/><stop offset=".975" stop-color="#2B2B2B"/><stop offset="1" stop-color="#141414"/></radialGradient><radialGradient id="g" cx=".5" cy=".5" r=".5" gradientUnits="userSpaceOnUse" gradientTransform="translate(-31.252 30.267) scale(59.87 -59.853)"><stop stop-color="#E6E6E6"/><stop offset=".104" stop-color="#D6D6D6"/><stop offset=".307" stop-color="#ADADAD"/><stop offset=".588" stop-color="#6C6C6C"/><stop offset=".933" stop-color="#121212"/><stop offset="1"/></radialGradient><radialGradient id="h" cx=".5" cy=".5" r=".5" gradientUnits="userSpaceOnUse" gradientTransform="translate(-37.239 47.312) scale(87.068 -87.043)"><stop stop-color="#fff"/><stop offset=".344" stop-color="#FDFDFD"/><stop offset=".481" stop-color="#F6F6F6"/><stop offset=".582" stop-color="#EAEAEA"/><stop offset=".665" stop-color="#D8D8D8"/><stop offset=".737" stop-color="#C2C2C2"/><stop offset=".802" stop-color="#A6A6A6"/><stop offset=".86" stop-color="#848484"/><stop offset=".913" stop-color="#5F5F5F"/><stop offset=".949" stop-color="#404040"/><stop offset=".957" stop-color="#404040"/><stop offset="1"/></radialGradient><radialGradient id="i" cx=".5" cy=".5" r=".5" gradientUnits="userSpaceOnUse" gradientTransform="translate(-83.556 64.4) scale(154.198 -154.155)"><stop offset=".169" stop-color="#fff"/><stop offset=".196" stop-color="#E0EFF7"/><stop offset=".241" stop-color="#B2D9EC"/><stop offset=".287" stop-color="#8BC5E2"/><stop offset=".335" stop-color="#6BB5DA"/><stop offset=".384" stop-color="#52A9D4"/><stop offset=".436" stop-color="#41A0CF"/><stop offset=".491" stop-color="#369BCD"/><stop offset=".556" stop-color="#39c"/><stop offset=".606" stop-color="#3396C8"/><stop offset=".655" stop-color="#328EBC"/><stop offset=".705" stop-color="#3180A8"/><stop offset=".754" stop-color="#2F6D8C"/><stop offset=".803" stop-color="#2D5468"/><stop offset=".851" stop-color="#2A373D"/><stop offset=".871" stop-color="#292929"/></radialGradient><radialGradient id="j" cx=".5" cy=".5" r=".5" gradientUnits="userSpaceOnUse" gradientTransform="translate(-103.025 44.932) scale(154.195 -154.152)"><stop offset=".169" stop-color="#fff"/><stop offset=".196" stop-color="#E0EFF7"/><stop offset=".241" stop-color="#B2D9EC"/><stop offset=".287" stop-color="#8BC5E2"/><stop offset=".335" stop-color="#6BB5DA"/><stop offset=".384" stop-color="#52A9D4"/><stop offset=".436" stop-color="#41A0CF"/><stop offset=".491" stop-color="#369BCD"/><stop offset=".556" stop-color="#39c"/><stop offset=".606" stop-color="#3396C8"/><stop offset=".655" stop-color="#328EBC"/><stop offset=".705" stop-color="#3180A8"/><stop offset=".754" stop-color="#2F6D8C"/><stop offset=".803" stop-color="#2D5468"/><stop offset=".851" stop-color="#2A373D"/><stop offset=".871" stop-color="#292929"/></radialGradient><radialGradient id="k" cx=".5" cy=".5" r=".5" gradientUnits="userSpaceOnUse" gradientTransform="translate(-30.653 29.687) scale(58.722 -58.706)"><stop stop-color="#E6E6E6"/><stop offset=".104" stop-color="#D6D6D6"/><stop offset=".307" stop-color="#ADADAD"/><stop offset=".588" stop-color="#6C6C6C"/><stop offset=".933" stop-color="#121212"/><stop offset="1"/></radialGradient><linearGradient id="l" x2="1" gradientUnits="userSpaceOnUse" gradientTransform="matrix(28.633 27.661 27.669 -28.625 -18.029 7.117)"><stop stop-color="#F0F4FF"/><stop offset=".109" stop-color="#EBEFF9"/><stop offset=".247" stop-color="#DCE0EA"/><stop offset=".403" stop-color="#C4C7CF"/><stop offset=".57" stop-color="#A2A4AB"/><stop offset=".747" stop-color="#76777C"/><stop offset=".929" stop-color="#414243"/><stop offset="1" stop-color="#2B2B2B"/></linearGradient><linearGradient id="m" x2="1" gradientUnits="userSpaceOnUse" gradientTransform="matrix(28.633 27.662 27.669 -28.626 -21.492 10.699)"><stop stop-color="#F0F4FF"/><stop offset=".109" stop-color="#EBEFF9"/><stop offset=".247" stop-color="#DCE0EA"/><stop offset=".403" stop-color="#C4C7CF"/><stop offset=".57" stop-color="#A2A4AB"/><stop offset=".747" stop-color="#76777C"/><stop offset=".929" stop-color="#414243"/><stop offset="1" stop-color="#2B2B2B"/></linearGradient><linearGradient id="n" x2="1" gradientUnits="userSpaceOnUse" gradientTransform="matrix(14.847 14.343 14.348 -14.843 -.962 13.745)"><stop stop-color="#C2D7E8"/><stop offset=".134" stop-color="#BACFE1"/><stop offset=".343" stop-color="#A4BACD"/><stop offset=".6" stop-color="#8098AC"/><stop offset=".894" stop-color="#4E697F"/><stop offset="1" stop-color="#3A566D"/></linearGradient><linearGradient id="o" x2="1" gradientUnits="userSpaceOnUse" gradientTransform="matrix(28.345 27.383 27.391 -28.337 -15.075 4.176)"><stop stop-color="#F0F4FF"/><stop offset=".097" stop-color="#E8EBF6"/><stop offset=".257" stop-color="#D1D4DD"/><stop offset=".459" stop-color="#ABAEB5"/><stop offset=".695" stop-color="#78797D"/><stop offset=".958" stop-color="#363637"/><stop offset="1" stop-color="#2B2B2B"/></linearGradient><linearGradient id="p" x2="1" gradientUnits="userSpaceOnUse" gradientTransform="matrix(9.942 9.606 9.608 -9.94 -4.963 5.135)"><stop stop-color="#D9DEF0"/><stop offset=".123" stop-color="#D4DAEC"/><stop offset=".263" stop-color="#C7CFE2"/><stop offset=".411" stop-color="#B0BCD1"/><stop offset=".566" stop-color="#90A1B8"/><stop offset=".725" stop-color="#677F99"/><stop offset=".885" stop-color="#355674"/><stop offset=".972" stop-color="#173D5D"/></linearGradient><linearGradient id="q" x2="1" gradientUnits="userSpaceOnUse" gradientTransform="matrix(28.314 27.353 27.361 -28.306 -24.011 13.433)"><stop stop-color="#F0F4FF"/><stop offset=".109" stop-color="#EBEFF9"/><stop offset=".247" stop-color="#DCE0EA"/><stop offset=".403" stop-color="#C4C7CF"/><stop offset=".57" stop-color="#A2A4AB"/><stop offset=".747" stop-color="#76777C"/><stop offset=".929" stop-color="#414243"/><stop offset="1" stop-color="#2B2B2B"/></linearGradient></defs></svg>