<svg xmlns="http://www.w3.org/2000/svg" width="212" height="130" fill="none"><path fill="#CC2229" fill-rule="evenodd" d="M171.64 101.3v27.97h-10.3V101.3h10.3zm-33.08 6.15c5.58 0 10.16 3.42 10.16 7.6 0 4.22-4.58 7.63-10.16 7.63s-10.16-3.4-10.16-7.62c0-4.2 4.58-7.6 10.16-7.6zm2.7-6.14l-8.42-9.5h12.58l11.6 15.65c1.12 1.6 1.97 4.33 2.1 7.08.4 8.46-9.26 15.43-20.56 15.43-11.3 0-20.56-6.94-20.56-15.43 0-8.5 8.3-15.16 23.27-13.22zM92.9 116.98c0 3.8 3.53 5.7 6.42 5.7 2.9 0 6.76-2.12 6.76-5.7V101.3h9.74v15.67c0 10.85-9.6 13.03-16.5 13.03-6.87 0-16.68-2.18-16.68-13.03V101.3H92.9v15.67zM62 91.8l23.66 37.47h-11.8l-4.17-6.6H46.8l-4.32 6.6H30.45L52.48 95.4l-3.34-3.6H62zm3.48 24.15H51.16l7.26-11.15 7.06 11.15z" clip-rule="evenodd"/><path fill="#fff" fill-rule="evenodd" d="M170.4 63.04c2.88.23 5.6-.06 8.43-.72 1.6-.45 3.18-1.02 4.7-1.7 1.47-.75 2.88-1.6 4.2-2.56 1.3-1 2.52-2.12 3.64-3.3 1.08-1.25 2.06-2.56 2.94-3.95 1.08-1.8 1.9-3.63 2.58-5.63.45-1.66.8-3.27 1.02-4.97.1-1.32.12-2.6.1-3.92-.16-2.18-.54-4.17-1.12-6.27-.42-1.17-.87-2.33-1.38-3.47-1.14-2.26-2.48-4.2-4.13-6.12-1.13-1.17-2.34-2.27-3.63-3.28-1.67-1.2-3.46-2.24-5.34-3.08-1.55-.6-3.15-1.1-4.78-1.5-2.3-.4-4.66-.58-7-.5-3.94.3-7.9 1.5-11.2 3.68-.24.16-.5.38-.73.54 2.6 3.95 4.35 8.56 5.4 13.15.3 1.5.55 2.97.7 4.46.5 4.74.04 9.54-1.28 14.12-1.1 3.76-2.83 7.57-5.1 10.8 3.44 2.46 7.76 3.95 11.97 4.26zM151.5 29.1c-.43-1.18-.94-2.33-1.52-3.44-1.37 2.6-2.36 5.35-2.8 8.26-.25 1.66-.36 3.34-.25 5.03.23 3.62 1.4 7.24 3.1 10.43 1.1-2.2 1.93-4.4 2.43-6.8.84-4.16.58-8.55-.67-12.6l-.28-.88zm-20.04 33.7c3.22-.54 6.12-1.62 8.97-3.17l1.1-.66c-.6-.82-1.15-1.77-1.65-2.65-1.72-3.04-3.02-6.3-3.87-9.67-.5-1.97-.83-3.97-1.03-6-.24-3.04-.12-6.1.37-9.12.93-5.47 2.96-10.6 6.08-15.2-1.32-.85-2.7-1.66-4.16-2.27-2.5-1.04-5.12-1.74-7.8-1.94-5.63-.43-11.12.87-15.84 3.92C117 21.1 119.08 27 119.92 33c.2 1.8.3 3.53.3 5.36-.1 3.58-.7 7.07-1.78 10.5-1.14 3.65-2.83 7-4.9 10.2 5.24 3.43 11.74 4.7 17.94 3.74zm-24.75-33.92c-.44-1.23-1-2.4-1.63-3.54-.97 1.87-1.8 3.8-2.36 5.84-.54 2.1-.87 4.24-.87 6.4.02 1.37.14 2.76.4 4.1.57 2.78 1.55 5.47 2.9 7.96.86-1.66 1.6-3.4 2.1-5.2.45-1.8.8-3.57.9-5.43.1-2.52-.08-5.05-.66-7.5-.2-.87-.48-1.8-.77-2.62zm-15.76-.43c1-3.9 2.57-7.5 4.68-10.9l.8-1.2.13-.2c-2.92-1.8-6.04-3.04-9.4-3.7-2.45-.47-5.1-.5-7.58-.3-3.44.48-6.72 1.54-9.68 3.37-.35.23-.73.5-1.05.75 2.64 3.95 4.36 8.55 5.4 13.14.55 2.46.85 4.95.9 7.45.04 2.27-.12 4.54-.47 6.78-.26 1.47-.6 2.92-1 4.35-1.1 3.77-2.83 7.58-5.1 10.8 8.03 5.74 19.78 5.8 27.9.18-3.1-4.65-5.23-9.76-6.16-15.28-.6-3.8-.65-7.7-.1-11.5.2-1.26.44-2.5.73-3.73zm-29.42.24c-.4-1.05-.85-2.06-1.37-3.04-1.36 2.6-2.35 5.35-2.8 8.26-.24 1.66-.35 3.34-.24 5.03.23 3.62 1.4 7.24 3.1 10.43.82-1.66 1.52-3.3 2-5.1 1.44-4.98 1.17-10.72-.7-15.6zM45.72 44.43c-.56-3.02-.76-6.1-.6-9.16.44-6.78 2.7-13.32 6.52-18.94-1.3-.87-2.7-1.67-4.15-2.28-2.5-1.04-5.13-1.74-7.82-1.94-2-.15-3.98-.04-5.96.2-1.25.23-2.5.52-3.7.87-1.98.65-3.87 1.5-5.66 2.55-1.38.88-2.7 1.86-3.92 2.94-1.2 1.1-2.3 2.33-3.3 3.62-1.22 1.67-2.25 3.45-3.08 5.34-.62 1.55-1.13 3.15-1.5 4.78l-.22 1.27c-.22 1.73-.3 3.46-.26 5.2.08 1.3.26 2.55.47 3.83.6 2.5 1.4 4.73 2.58 7.02.62 1.06 1.3 2.1 2 3.1 1.28 1.65 2.65 3.07 4.22 4.44 1.3 1 2.66 1.93 4.1 2.75 1.87.95 3.76 1.7 5.8 2.27 1.2.3 2.5.54 3.74.7 1.4.08 2.75.14 4.13.06 3.72-.26 7.34-1.28 10.65-2.98l.87-.48 1.08-.65c-1.02-1.4-1.88-3.05-2.67-4.6-1.54-3.15-2.66-6.5-3.34-9.93zm149.2 23.23c-1.47 1.06-3 2.04-4.56 2.95-1.63.82-3.3 1.57-5 2.24-1.75.6-3.52 1.1-5.34 1.52l-1.84.34c-3.23.4-6.48.56-9.72.2-3.88-.42-7.67-1.44-11.25-3-2.52-1.16-4.94-2.56-7.2-4.18-2.5 1.75-5.1 3.26-7.93 4.45-3.9 1.6-8.02 2.56-12.22 2.87-2.93.17-5.87 0-8.77-.46-5.8-1.04-11.28-3.3-16.1-6.74-2.06 1.45-4.2 2.74-6.5 3.8-4.77 2.16-9.8 3.35-15.03 3.47-3.45.04-6.87-.32-10.22-1.2-4.73-1.23-9.05-3.33-13.04-6.2-2.12 1.47-4.23 2.75-6.54 3.83-4.77 2.2-10 3.46-15.25 3.57-2.18.03-4.33-.15-6.5-.4-1.84-.34-3.66-.76-5.46-1.28-1.74-.6-3.45-1.26-5.12-2-1.62-.83-3.2-1.74-4.72-2.72-1.96-1.4-3.82-2.93-5.56-4.6-1.25-1.3-2.44-2.67-3.55-4.1-1.06-1.47-2.04-3-2.94-4.55-.83-1.64-1.6-3.3-2.27-5-.6-1.76-1.12-3.54-1.54-5.34-.32-1.86-.56-3.74-.7-5.62L0 37.6l.06-1.94.14-1.9.24-1.88.32-1.85.44-1.83.5-1.77.6-1.73.67-1.73.77-1.66.82-1.6.9-1.6.97-1.5 1.06-1.48 1.1-1.4c1.2-1.4 2.44-2.68 3.73-3.93 1.38-1.2 2.8-2.3 4.27-3.37 1.54-.97 3.1-1.88 4.72-2.7 1.67-.77 3.38-1.44 5.12-2.04 1.8-.5 3.6-.96 5.46-1.26 2.7-.34 5.4-.52 8.13-.36 3.45.25 6.8.92 10.03 2.05C53.2 3.28 56.2 4.8 59 6.68l.6.44.5.37C65.5 3.47 71.96.95 78.64.2c4-.37 8.03-.2 11.97.65 3.5.78 6.9 2.04 10.08 3.74 1.52.83 2.97 1.77 4.4 2.76 2.4-1.8 5.07-3.3 7.83-4.45C118.2.68 124.1-.25 129.86.1c1.85.13 3.72.4 5.52.77 4.3.94 8.42 2.63 12.14 5 .82.5 1.66 1.07 2.42 1.64 3.7-2.75 7.88-4.8 12.3-6.07C165.6.47 169 .05 172.5 0l1.98.05 1.96.15 1.93.24c1.87.33 3.72.74 5.55 1.25 1.76.57 3.48 1.25 5.17 2.02 1.62.82 3.2 1.72 4.72 2.72 1.46 1.05 2.86 2.14 4.22 3.35 1.3 1.22 2.52 2.52 3.67 3.9 1.1 1.4 2.13 2.88 3.07 4.4l.9 1.6.8 1.62.73 1.66.66 1.7.56 1.76.5 1.76c.4 1.85.72 3.66.95 5.56.13 1.92.18 3.84.13 5.76-.14 1.88-.37 3.76-.7 5.62l-.44 1.83-.5 1.77-.6 1.74c-.66 1.7-1.42 3.37-2.25 5-1.2 2.1-2.55 4.1-4.05 5.98-1.18 1.37-2.42 2.7-3.74 3.93l-1.36 1.16-1.42 1.1z" clip-rule="evenodd"/><path fill="#D0D1D3" fill-rule="evenodd" d="M60.77 58.67c-5.55-5.55-8.7-12.66-8.7-21.07 0-8.02 3-15.16 8.08-20.65 4.98 5.45 8.06 12.7 8.06 20.65 0 5.52-1.05 10.17-3.65 14.63 3.86-12.26 2.75-20.88-1.98-27.73.85 1.2 3.17 7.96 2.75 13.1 0 5.68-1.74 10.97-4.7 15.36l.15 5.7zM208.9 37.6c0 20.05-16.37 36.37-36.4 36.37-8.4 0-16.14-2.85-22.47-7.7-6.34 4.8-14.14 7.7-22.6 7.7-8.36 0-16.08-2.85-22.43-7.56-6.36 4.77-14.03 7.57-22.33 7.57-8.4 0-16.13-2.85-22.46-7.7-6.32 4.8-14.13 7.7-22.58 7.7-20.05 0-36.4-16.32-36.4-36.37 0-20.05 16.35-36.4 36.4-36.4 8.45 0 16.26 2.9 22.5 7.78 6.28-4.88 14.1-7.8 22.55-7.8 8.45 0 16.15 2.9 22.42 7.66 6.37-4.97 14.24-7.66 22.33-7.65 8.46 0 16.26 2.9 22.5 7.78 6.3-4.88 14.1-7.8 22.56-7.8 20.8 0 36.4 16.32 36.4 36.42zM172.5 5c-6.17 0-11.84 1.76-16.74 4.82 8-6.4 20.86-7.77 35.63-2.62-5.34-3.23-12.2-5.32-18.9-5.32-8.53 0-16.43 3.1-22.6 8.12l.1 4.1C144.13 8.48 136.17 5 127.43 5c-5.9 0-11.7 1.67-16.7 4.82 7.98-6.4 20.85-7.77 35.6-2.62-5.33-3.23-12.18-5.32-18.9-5.32-8.5 0-16.18 2.87-22.34 7.9v4.33C99.22 8.5 91.4 5 82.66 5c-5.92 0-11.7 1.67-16.7 4.82 7.98-6.4 20.83-7.77 35.6-2.62-5.33-3.23-12.18-5.32-18.9-5.32-8.5 0-16.4 3.1-22.6 8.13l.1 4.1C54.33 8.5 46.38 5 37.63 5 31.7 5 25.9 6.68 20.9 9.83c8-6.38 20.86-7.77 35.62-2.62-5.33-3.23-12.2-5.32-18.9-5.32C17.95 1.88 1.9 17.95 1.9 37.6c0 6.83 2.37 14.3 6.4 20.32-8.15-16.08-4.03-28.3 1.17-35.9-2 4.45-4.6 10.43-4.47 15.58.5 17.73 14.67 32.6 32.62 32.6 9.1 0 16.8-3.23 22.83-9.33 5.98 6.23 12.98 9.33 22.22 9.33 4.2 0 8.35-.84 12.22-2.46 3.86-1.62 7.37-4 10.3-6.98 5.82 5.82 13.4 9.44 22.23 9.44 9.12 0 16.8-3.23 22.83-9.33 6 6.23 12.98 9.33 22.23 9.33 17.94 0 32.58-14.65 32.58-32.6 0-17.82-14.76-32.6-32.6-32.6zm-71.7 53.53c-5.04 4.37-11.47 6.77-18.13 6.77-6.54-.1-9.47-1.25-12.26-2.62 8 6.22 25.75 3.8 30.28-.1-4.94 3.56-11.15 5.6-18 5.6-8.43 0-15.52-3.08-21.1-8.58 5.73-5.84 8.63-13.17 8.63-22 0-8.58-3.36-16.43-8.83-22.27 4.2-4.2 12.5-8.33 21.3-8.33 8.02 0 15.57 3.65 21.06 8.74H99.7c-5.18 6.2-7.97 13.22-7.97 21.86 0 6.83 2.38 14.3 6.4 20.32C89.97 41.84 94.1 29.62 99.3 22c-2 4.47-4.58 10.46-4.46 15.6.18 7.97 3.8 15.37 8.7 21.1l-2.75-.17zm4.27-.52c-5.15-5.48-8.22-12.38-8.22-20.4 0-8.02 3.13-15.35 8.24-20.83 5.2 5.46 8.16 12.7 8.16 20.83 0 5.52-1.07 10.17-3.66 14.63 3.86-12.25 2.74-20.88-1.98-27.73.85 1.2 3.17 7.96 2.76 13.1 0 5.85-1.85 11.32-4.97 15.8l-.33 4.6zm1.6 1.63c5.4-5.77 8.6-13.46 8.6-22.03 0-8.6-3.14-16-8.6-21.87 5.48-5.4 12.5-8.73 20.76-8.73 7.97 0 15.45 3 20.9 8.05l-3.52.02c-5.2 6.35-8.05 14.3-8.04 22.53 0 6.83 2.38 14.3 6.42 20.32-8.16-16.08-4.04-28.3 1.16-35.92-2 4.47-4.6 10.43-4.47 15.6.18 8.53 3.05 15.56 8.57 21.46l-3.15-.33c-4.83 4.07-11.1 6.57-17.87 6.57-6.55-.1-9.2-1.4-12.25-2.62 7.98 6.22 25.73 3.8 30.26-.1-4.94 3.56-11.15 5.6-18 5.6-8.8 0-15.12-3.5-20.78-8.55zm5.23-.28c4.36 3.14 9.8 4.97 15.53 4.97 5.75 0 11.37-1.93 15.78-5.03-4.34-6.03-7.13-13.73-7.13-21.7 0-8 2.6-15.43 7.05-21.53-4.53-3.4-10.04-5.22-15.7-5.2-5.73 0-11.04 1.74-15.4 4.87 4.2 5.9 7.03 13.98 7.03 21.86 0 7.97-2.8 15.73-7.15 21.75zM105.18 52c2.77-4.3 4.23-9.3 4.22-14.4 0-5.4-1.5-10.45-4.3-14.52-2.73 4.3-4.4 9.23-4.4 14.52 0 5.18 1.9 10.26 4.48 14.4zm-7.02 7.25c-4.45-6.2-7.13-13.63-7.13-21.65 0-7.84 2.54-15.46 7.24-21.73-4.36-3.03-9.93-5-15.58-5-6.8-.4-14.2 3.5-15.3 5.32 4.03 5.8 6.62 13.7 6.62 21.4 0 7.96-2.6 15.34-7.04 21.45 4.34 3.35 9.8 5.27 15.7 5.27 5.74 0 11.1-1.83 15.48-5.07zm-39.54-.2l-3.16-.32C50.64 62.8 44.4 65.3 37.62 65.3c-6.54-.1-8.48-1.66-12.27-2.62 8 6.22 25.74 3.8 30.28-.1-4.95 3.56-11.16 5.6-18 5.6-16.84 0-30.6-13.73-30.6-30.58C7.02 20.75 20.76 7 37.62 7c7.97 0 15.44 3 20.88 8.05l-3.5.02c-5.02 6.14-8.06 14-8.06 22.53 0 6.83 2.4 14.3 6.42 20.32-8.16-16.08-4.02-28.3 1.16-35.9-2 4.45-4.58 10.4-4.45 15.58.18 8.53 3.03 15.56 8.55 21.46zm1.63-7.3c2.7-4.23 4.1-9.14 4.1-14.15 0-5.22-1.5-10.1-4.14-14.3-2.6 4.1-4.28 9.08-4.28 14.3 0 5.1 1.82 10.14 4.33 14.16zM53.4 59.3c-4.34-6.03-7.15-13.73-7.15-21.7 0-8 2.6-15.43 7.05-21.53-4.52-3.4-10.02-5.22-15.68-5.2-14.73 0-26.75 12-26.75 26.73S22.9 64.32 37.62 64.32c5.74 0 11.38-1.93 15.8-5.03zm97.2-.63c-5.56-5.55-8.72-12.66-8.72-21.07 0-8.02 3-15.16 8.07-20.65 5 5.45 8.07 12.7 8.07 20.65 0 5.52-1.07 10.17-3.66 14.63 3.87-12.26 2.74-20.88-1.97-27.73.83 1.2 3.16 7.96 2.74 13.1 0 5.68-1.74 10.97-4.7 15.36l.15 5.7zm.8.93c5.72-5.84 8.63-13.17 8.63-22 0-8.6-3.37-16.44-8.86-22.27 4.2-4.2 12.5-8.33 21.32-8.33 16.83 0 30.56 13.75 30.56 30.6 0 5.52-1.05 10.17-3.64 14.63 3.86-12.25 2.73-20.88-1.98-27.73.84 1.2 3.17 7.96 2.74 13.1 0 15.26-12.44 27.7-27.7 27.7-6.53-.1-9.46-1.25-12.27-2.62 8 6.22 25.75 3.8 30.28-.1-4.94 3.56-11.14 5.6-18 5.6-8.4 0-15.5-3.08-21.08-8.58zm5.38-.55c4.36 3.35 9.82 5.27 15.7 5.27 14.73 0 26.74-12 26.74-26.72 0-14.73-12-26.74-26.73-26.74-6.8-.38-14.2 3.5-15.3 5.33 4.04 5.8 6.63 13.7 6.63 21.4 0 7.95-2.6 15.33-7.05 21.45zm-6.7-7.3c2.6-4.12 4.1-8.97 4.1-14.15 0-5.22-1.53-10.1-4.15-14.3-2.63 4.1-4.3 9.08-4.3 14.3 0 5.1 1.8 10.14 4.34 14.16z" clip-rule="evenodd"/></svg>