<svg xmlns="http://www.w3.org/2000/svg" width="112" height="13" fill="none"><path fill="#CC2229" fill-rule="evenodd" d="M33.9 13c-7.15 0-10.35-2.64-10.35-6.55 0-3.8 3.2-6.45 10.36-6.45 7.14 0 10.34 2.65 10.34 6.45 0 3.9-3.2 6.55-10.33 6.55zm46.87-.48h-12.7v-1.6s1.3-.14 1.82-.2c.5-.08.72-.5.7-.97 0-.47.02-5.9.02-6.45 0-.55-.27-.87-.83-.94-.57-.08-1.74-.2-1.74-.2V.47h12.7c5.78 0 8.27 2.7 8.27 5.88 0 3.54-2.5 6.18-8.26 6.18zm-35.97.04V10.9s1.52-.15 1.76-.2c.57-.08.78-.45.78-1.02v-6.3c0-.63-.28-.97-.9-1.03-.2-.02-1.64-.18-1.64-.18V.47s8.82 0 8.95 0c.48 0 .8.2 1.06.52.06.05 6.7 8.42 6.7 8.42s0-5.4 0-5.98c0-.57-.2-1-.82-1.07-.2-.02-1.72-.2-1.72-.2V.48h8.1v1.7s-1.4.14-1.7.18c-.7.1-.82.56-.82 1.04 0 .47 0 9.16 0 9.16h-6.36c-.42 0-.84-.18-1.07-.46-.14-.18-6.72-8.5-6.72-8.5s0 5.6 0 6.17c0 .55.3.9.8.95.52.06 1.74.2 1.74.2v1.64H44.8zm-44.8 0v-1.6s1.04-.13 1.68-.2c.64-.08.86-.47.86-1.17V3.44c0-.6-.16-1.04-.84-1.14-.24-.03-1.7-.18-1.7-.18V.46h10.15V2.1s-1.53.17-1.73.2c-.5.07-.8.4-.8 1.08V5.3h7.8V3.43c0-.6-.18-1.06-.77-1.13-.6-.08-1.76-.2-1.76-.2V.46h10.13V2.1s-1.22.15-1.75.2c-.54.07-.8.47-.78 1.12 0 .1 0 5.6 0 6.3 0 .7.4.95.74 1 .33.03 1.8.2 1.8.2v1.64H12.88V10.9s1.54-.16 1.74-.2c.7-.13.8-.58.8-1.13-.02-.55 0-1.85 0-1.85H7.6s0 1.12 0 1.94c.02.8.42 1.04.8 1.1.5.06 1.74.2 1.74.2v1.6H0zM83.2 6.5c0-3.04-1.28-3.72-4.37-3.72h-3.25v7.4h3.25c3.1 0 4.38-.6 4.38-3.68zm-44.8 0c0-3.14-1.63-4.18-4.5-4.18-2.88 0-4.53 1.04-4.53 4.17 0 3.17 1.65 4.18 4.52 4.18 2.87 0 4.5-1 4.5-4.2zm57.75 6.07h-8.12V10.9l1.73-.2c.6-.08.84-.54.9-.64.08-.1 3.97-6.12 4.3-6.65.35-.53 0-.94-.45-1.02-.3-.05-2.24-.24-2.24-.24V.46h9.9c.62.02 1 .7 1 .7l5.7 8.3c.45.66.8 1.15 1.36 1.23.56.07 1.77.2 1.77.2v1.66h-10.96v-1.64s.73-.1 1.4-.17c.65-.08 1.2-.36.66-1.12-.55-.77-.53-.76-.53-.76H94.8s-.24.36-.62.92c-.38.54.02.9.58.96l1.4.17v1.64zm.06-5.87l4.9.02L98.63 3 96.2 6.7z" clip-rule="evenodd"/></svg>