<svg xmlns="http://www.w3.org/2000/svg" width="124" height="65" fill="none"><path fill="#FFFAC3" fill-rule="evenodd" d="M123.97 32.5C123.97 50.45 96.2 65 62 65 27.74 65 0 50.45 0 32.5S27.75 0 62 0c34.2 0 61.97 14.55 61.97 32.5z" clip-rule="evenodd"/><path fill="#2B6352" fill-rule="evenodd" d="M121.4 32.48c0 16.48-26.6 29.84-59.44 29.84-32.82 0-59.44-13.36-59.44-29.84 0-16.5 26.62-29.85 59.44-29.85C94.8 2.63 121.4 16 121.4 32.48zM61.96 4.98c-31.54 0-57.1 12.3-57.1 27.5 0 15.18 25.56 27.5 57.1 27.5 31.54 0 57.1-12.32 57.1-27.5 0-15.2-25.56-27.5-57.1-27.5zM117.6 32.48c0 14.37-24.9 26-55.64 26-30.72 0-55.63-11.63-55.63-26S31.23 6.46 61.96 6.46c30.73 0 55.63 11.65 55.63 26.02zM97.6 20.28h-9.54l-1.17 3.34h6.2l-7.05 2.44-.47 1.34 10.84-3.55 1.2-3.56zM36.8 26.14h-3.9s3.6-9.6 3.9-10.33c.5-1.3.8-1.2.8-1.2h-5.36c.67.32.08 1.57.08 1.57s-4.3 11.98-4.6 12.57c-.3.6-.53.68-.53.68h9.3l1.3-3.55c-.12.34-1 .26-1 .26zm16.3 3.27h4.37s-.3-.44-.1-.93c.25-.67 2.57-7 2.57-7l1 7.93h3.98l5.2-14.1s.2-.66.5-.66H66.4s.12.48-.03.85c-.14.36-2.54 6.76-2.54 6.76l-.93-7.63h-4.53s.23.37.08.78l-4.8 13.2s-.3.8-.56.8zm20-14.77s.38.6-.1 2c-.5 1.37-4.3 11.66-4.3 11.66s-.3.96-.72 1.15h6s7.25.26 9.5-7.37c0 0 2.84-7.52-5.4-7.45H73.1zm.65 11.4s0 0 .7 0c1 0 2.9-.23 4.16-3.32 2.1-5.06-.8-4.9-.8-4.9h-1.14l-2.9 8.23zM20.5 41.35h9.54l1.17-3.32h-6.17l7.04-2.44.47-1.36L21.7 37.8l-1.2 3.55zm16.72 6.13c-.15 0-.15-.48-.15-.48l1.76-4.66s2.18 4.3 2.33 4.6c.15.3.08.54.08.54h5.23c-.5 0-1.02-.95-1.02-.95l-2.6-4.67c3.64 0 4.8-3.6 4.8-3.6 1.8-5.75-4.24-5.6-4.24-5.6h-6.18c.45.5.1 1.55.1 1.55s-3.84 11-4.14 11.84c-.3.85-.85 1.44-.85 1.44h4.9zm3.7-11.4l-1 2.97h.95s1.84.16 2.52-1.3c0 0 .8-1.7-1.44-1.7-.5 0-1.03.02-1.03.02zm50.42 11.45c-.38 0-.12-.9-.12-.9l1.57-4.24s2.1 4.28 2.25 4.58c.15.3.07.55.07.55h5.42c-.5 0-1.05-.95-1.05-.95l-2.6-4.67c3.63 0 4.73-3.47 4.73-3.47 1.9-6-4.18-5.7-4.18-5.7H91.3c.46.48.1 1.53.1 1.53s-4 11.03-4.3 11.87c-.18.52-.48 1-.86 1.4h5.1zm3.56-8.43s1.84.14 2.4-1.3c.66-1.7-1-1.64-1-1.64h-1.35l-1 2.94h.95zm-40.77 8.75c5.4 0 8.6-5.3 8.6-9.1 0-3.98-1.63-6.47-5.37-6.47-4.77 0-7.9 3.62-8.7 8.12-.73 4.14 1.6 7.45 5.47 7.45zm.34-3.5c1.34.24 2.82-.73 3.6-3.82 1.17-4.7-1-4.73-1.4-4.77-1.18-.15-2.78 1.23-3.43 4.1-.3 1.3-.6 4.14 1.23 4.48zm9.55-11.63s.37.2.37 1.14v12.82s-.06.7-.33.85h4s0-.3.4-.8 8.74-11.67 8.74-11.67 1.9-2.34 2.4-2.34h-5.73s.45.3.1.84c-.35.55-5.45 8.2-5.45 8.2l.06-7.7s0-1.25.5-1.35l-5.06.02zm24.25 3.5l1.3-3.5h-9.73s.35.3-.1 1.55c-.45 1.25-4.4 11.87-4.4 11.87s-.7 1.4-.9 1.4H84.5l1.2-3.54s-.15.2-1.1.2h-4.24l.9-2.4h3.3s.68-.05.83.15l1.35-3.8s-.1.36-1 .36h-3.2l.96-2.64h4.04s.55-.07.75.35zm-50.7-6.8h4.8s-.03-.37.1-.6c.22-.44.82-1.5.82-1.5h4.82v1.3s.03.46-.32.8h4.8s-.37-.2-.43-.78l-.6-13.02s-.03-.83.37-1h-4.76s.34.4-.3 1.34c-.63.94-8.75 12.97-8.75 12.97s-.16.3-.57.5zm10.46-9.77L45.36 24h2.7l-.03-4.35z" clip-rule="evenodd"/></svg>