<svg xmlns="http://www.w3.org/2000/svg" width="79" height="65" fill="none"><path fill="#AB002F" d="M39.32 57.98c-.02-3.87 3.1-7 7-7 3.82 0 6.95 3.12 7.02 7-.07 3.84-3.2 6.97-7 7.02-3.9-.05-7.04-3.18-7.02-7.02zm7 4.43c2.12-.02 3.86-2 3.9-4.42-.04-2.46-1.78-4.44-3.9-4.43-2.2 0-3.94 1.97-3.87 4.43-.07 2.42 1.68 4.4 3.88 4.43zm14.96-8.48v10.7h-2.95v-10.7h-4.25v-2.4h11.26v2.4h-4.06zm7.57 7.75l-1.1 2.96h-3.5l5.52-13.1h3.7l5.35 13.1h-3.5l-1.1-2.96h-5.37zm2.77-2.2h1.84l-1.84-4.8-1.85 4.8h1.85zM7.02 53.9v10.7H4.05v-10.7H0v-2.4h11.08v2.4H7zm4.8 4.06c0-3.87 3.12-7 7-7 3.84 0 6.96 3.12 7.02 7-.06 3.84-3.18 6.97-7.02 7.02-3.88-.05-7-3.18-7-7.02zm7 4.43c2.14-.02 3.88-2 3.88-4.42 0-2.46-1.74-4.44-3.88-4.43-2.17 0-3.92 1.97-3.87 4.43-.05 2.42 1.7 4.4 3.87 4.43zm13.67 2.23h1.46v-5l5.17-8.1H35.8l-3.3 5.53-3.15-5.54h-3.5L31 59.64v5h1.5z"/><path d="M2.38 22.68c0 12.5 16.26 22.68 36.24 22.68s36.24-10.18 36.24-22.68S58.6 0 38.62 0 2.38 10.17 2.38 22.68zm1.1 0C3.5 10.78 19.26 1.1 38.63 1.1s35.13 9.7 35.13 21.58c0 11.9-15.76 21.56-35.13 21.56-19.37 0-35.13-9.67-35.13-21.56zM35.2 4.12c-8.5.52-14.65 2.77-15.7 5.73-.1.3-.16.6-.16.93 0 .5.14 1 .42 1.48 1.18 2 4.83 3.66 10.03 4.55l.54.1.1-.55c.85-5.2 2.72-9.3 5.14-11.24L36.95 4l-1.75.12zM20.72 11.7c-.18-.3-.27-.62-.27-.92 0-.18.03-.37.1-.56.8-2.26 6.25-4.24 13.2-4.87-1.98 2.24-3.5 5.86-4.3 10.25-4.52-.83-7.77-2.27-8.73-3.9zm12.92 4.98l-.1.6.6.05c1.46.1 2.97.17 4.48.17 1.5 0 3.02-.06 4.47-.17l.6-.05-.1-.6c-.84-4.7-2.7-7.5-4.98-7.5-2.28 0-4.14 2.8-4.98 7.5zm4.98-6.4c1.56 0 3 2.34 3.75 5.97-1.23.08-2.48.13-3.75.13s-2.52-.05-3.75-.13c.75-3.63 2.2-5.96 3.75-5.96zm3.04-5.17c2.42 1.94 4.3 6.04 5.15 11.25l.1.55.55-.1c5.2-.88 8.86-2.54 10.03-4.54.45-.77.54-1.6.26-2.4-1.05-2.97-7.2-5.22-15.7-5.74l-1.74-.1 1.36 1.1zm1.83.25c6.94.63 12.4 2.6 13.2 4.87.06.2.1.38.1.56 0 .3-.1.6-.28.92-.96 1.63-4.2 3.07-8.73 3.9-.8-4.4-2.33-8-4.3-10.25zm-29.37 6.68c-3.8 3.2-5.82 7-5.82 10.98 0 9.38 11.44 17.3 26.6 18.44l1.7.13-1.3-1.1c-3.32-2.85-5.38-9.6-5.38-17.6l.04-1.9-.47-.1c-7.98-1.42-13.66-4.77-14.46-8.53l-.2-.9-.7.6zM9.43 23c0-3.4 1.66-6.7 4.8-9.54 1.45 3.8 6.9 6.95 14.6 8.43 0 .42-.02.97-.02.97 0 7.43 1.77 13.84 4.68 17.3C19.68 38.7 9.42 31.5 9.42 23.02zm23.76-1v.2c0 7.45 2.32 13.07 5.42 13.07s5.43-5.62 5.43-13.06v-.8l-.6.05c-1.58.14-3.2.2-4.83.2s-3.25-.06-4.82-.2l-.6-.05v.6zm9.73.6c-.08 6.93-2.26 11.56-4.3 11.56-2.06 0-4.24-4.63-4.32-11.56 1.42.1 2.87.17 4.32.17 1.46 0 2.9-.06 4.3-.17zM62.2 12.34c-.8 3.76-6.48 7.1-14.45 8.54l-.47.1.04 1.9c0 8-2.06 14.74-5.38 17.58l-1.3 1.1 1.7-.12C57.5 40.3 68.94 32.38 68.94 23c0-3.98-2.02-7.77-5.84-10.97l-.7-.6-.2.9zm.82 1.12c3.13 2.85 4.8 6.13 4.8 9.55 0 8.5-10.24 15.7-24.06 17.18 2.9-3.47 4.67-9.88 4.67-17.3 0 0 0-.56-.02-1 7.7-1.47 13.16-4.63 14.62-8.42z"/><path fill="url(#a)" d="M55.84.03c.06.14.1.28.14.43.2.83.16 1.65-.1 2.45 3.6 3 5.74 6.67 5.74 10.65 0 9.95-13.32 18.02-29.75 18.02-16.44 0-29.76-8.07-29.76-18.02C2.1 9.57 4.26 5.9 7.87 2.9c-.27-.8-.3-1.6-.1-2.44.04-.16.1-.3.17-.46C3 3.52 0 8.12 0 13.17 0 24.2 14.27 33.12 31.87 33.12s31.86-8.93 31.86-19.95c0-5.04-2.98-9.63-7.9-13.14z" transform="translate(6.753 9.453)"/><path fill="url(#b)" d="M25.24 13.4c-1.4.1-2.88.17-4.42.17-1.55 0-3.03-.06-4.43-.17l-.93.67c1.7.15 3.48.23 5.35.23 1.86 0 3.65-.08 5.35-.23l-.93-.67zm16.28-7C40.4 2.73 31.18 0 20.82 0 10.45 0 1.22 2.72.12 6.4c-.98 3.22 4.32 6.2 12.7 7.37l-.74-.9c-6.77-1.14-10.8-3.6-9.86-6.2 1.13-3.17 9.3-5.47 18.6-5.47s17.47 2.3 18.6 5.47c.92 2.6-3.1 5.06-9.87 6.2l-.72.9C37.2 12.6 42.5 9.62 41.53 6.4z" transform="translate(17.803 3.373)"/><path fill="url(#c)" d="M.92 8.68c.78-4.3 2.46-7 4.42-7 1.95 0 3.64 2.7 4.42 7l.92.66C9.9 3.64 7.8 0 5.34 0 2.87 0 .77 3.64 0 9.34l.9-.66h.02z" transform="translate(33.281 8.094)"/><path fill="url(#d)" d="M11.26 0l-.74 1.34c0 .1 0 .2 0 .3 0 7.16-2.18 12.58-4.87 12.58C2.95 14.22.77 8.8.77 1.64c0-.1 0-.22 0-.33L.04 0C0 .55 0 1.1 0 1.64 0 9.74 2.53 15.9 5.65 15.9c3.12 0 5.65-6.15 5.65-14.26 0-.55 0-1.1-.04-1.64z" transform="translate(32.972 20.664)"/><path fill="url(#e)" d="M.73 13.77C1.8 5.85 4.97 0 8.73 0 4.7 0 1.27 5.18 0 12.9l.72.87z" transform="translate(29.893 3.373)"/><path fill="url(#f)" d="M8 13.77l.72-.87C7.45 5.18 4.02 0 0 0c3.75 0 6.93 5.85 8 13.77z" transform="translate(38.62 3.373)"/><path fill="url(#g)" d="M9.22 1.1L8.32 0H8.3c.06.87.08 1.75.08 2.64 0 10.82-3.75 19.6-8.38 19.6 5.2 0 9.25-8.14 9.25-19.6 0-.53 0-1.04-.03-1.55z" transform="translate(38.62 20.336)"/><path fill="url(#h)" d="M.87 2.64C.87 1.74.9.87.95 0L.02 1.1C0 1.6 0 2.1 0 2.63c0 11.46 4.07 19.6 9.25 19.6-4.62 0-8.38-8.78-8.38-19.6z" transform="translate(29.366 20.336)"/><path fill="#2D2F34" d="M62.63 12.36c1.38 1.14 2.55 2.38 3.46 3.7-.33-2.1-1.16-4.1-2.45-5.78-.34-.28-.7-.54-1.05-.8.05.14.1.3.13.43.2.84.17 1.66-.1 2.46zm-48.02 0c-.26-.8-.3-1.62-.1-2.45.05-.15.1-.3.18-.45-.37.27-.73.54-1.1.83-1.27 1.7-2.1 3.68-2.43 5.8.9-1.34 2.08-2.58 3.46-3.72z"/><path fill="url(#i)" d="M0 22.12C0 9.92 15.98 0 35.7 0c19.7 0 35.67 9.9 35.67 22.12S55.4 44.24 35.7 44.24C15.97 44.24 0 34.34 0 22.12zm35.7 19.9c17.6 0 31.85-8.93 31.85-19.95S53.3 2.1 35.7 2.1 3.8 11.06 3.8 22.08 18.1 42.02 35.7 42.02z" transform="translate(2.933 .557)"/><path fill="url(#j)" d="M0 19.6C0 8.9 3.75 0 8.38 0c4.63 0 8.4 8.9 8.4 19.6 0 10.83-3.77 19.6-8.4 19.6C3.75 39.2 0 30.43 0 19.6zm8.38 13.58c3.12 0 5.65-6.14 5.65-14.25 0-8.4-2.53-14.2-5.65-14.2-3.12 0-5.65 5.8-5.65 14.2 0 8.1 2.53 14.25 5.65 14.25z" transform="translate(30.238 3.373)"/><path fill="url(#k)" d="M.13 8.94C1.05 5.3 12.18 0 24.23 0c12.08 0 22.82 3.8 24.13 8.94 1.46 5.78-9.27 11-24.12 11-14.85 0-25.57-5.22-24.1-11zm24.1-6.54C13.9 2.4 4.67 5.12 3.54 8.82c-1.24 4.14 7.96 7.88 20.7 7.88 12.77 0 21.97-3.74 20.72-7.88-1.12-3.7-10.34-6.42-20.7-6.42z" transform="translate(14.376 .971)"/><path fill="url(#l)" d="M18.62 9.5l.77 1.35c1.55.13 3.17.2 4.84.2 1.7 0 3.3-.07 4.88-.2l.75-1.35c-1.8.16-3.67.26-5.63.26-1.88 0-3.75-.1-5.62-.27zM48.48 0c-.2 4.13-6.54 7.8-15.93 9.17l.92 1.1c9.2-1.65 15.23-5.7 15-10.27zM0 0c-.2 4.57 5.83 8.62 15 10.27l.93-1.1C6.53 7.8.2 4.13 0 0z" transform="translate(14.377 11.162)"/><defs><linearGradient id="a" x2="1" gradientUnits="userSpaceOnUse" gradientTransform="matrix(0 -25.207 -25.207 0 44.47 30.659)"><stop stop-color="#F0F3F5"/><stop offset=".056" stop-color="#E2E5E8"/><stop offset=".138" stop-color="#D4D8DD"/><stop offset=".242" stop-color="#CCD0D6"/><stop offset=".44" stop-color="#CACED4"/><stop offset=".568" stop-color="#B3B7BD"/><stop offset=".835" stop-color="#797C83"/><stop offset="1" stop-color="#52545C"/></linearGradient><linearGradient id="b" x2="1" gradientUnits="userSpaceOnUse" gradientTransform="matrix(0 -13.659 -13.659 0 27.647 17.532)"><stop stop-color="#F0F3F5"/><stop offset=".056" stop-color="#E2E5E8"/><stop offset=".138" stop-color="#D4D8DD"/><stop offset=".242" stop-color="#CCD0D6"/><stop offset=".44" stop-color="#CACED4"/><stop offset=".568" stop-color="#B3B7BD"/><stop offset=".835" stop-color="#797C83"/><stop offset="1" stop-color="#52545C"/></linearGradient><linearGradient id="c" x2="1" gradientUnits="userSpaceOnUse" gradientTransform="matrix(-8.528 -7.156 -7.156 8.528 13.452 6.036)"><stop stop-color="#F0F3F5"/><stop offset=".056" stop-color="#E2E5E8"/><stop offset=".138" stop-color="#D4D8DD"/><stop offset=".242" stop-color="#CCD0D6"/><stop offset=".44" stop-color="#CACED4"/><stop offset=".568" stop-color="#B3B7BD"/><stop offset=".835" stop-color="#797C83"/><stop offset="1" stop-color="#52545C"/></linearGradient><linearGradient id="d" x2="1" gradientUnits="userSpaceOnUse" gradientTransform="matrix(-12.436 -7.18 -7.18 12.436 14.641 3.417)"><stop stop-color="#F0F3F5"/><stop offset=".056" stop-color="#E2E5E8"/><stop offset=".138" stop-color="#D4D8DD"/><stop offset=".242" stop-color="#CCD0D6"/><stop offset=".44" stop-color="#CACED4"/><stop offset=".568" stop-color="#B3B7BD"/><stop offset=".835" stop-color="#797C83"/><stop offset="1" stop-color="#52545C"/></linearGradient><linearGradient id="e" x2="1" gradientUnits="userSpaceOnUse" gradientTransform="matrix(0 21.665 21.665 0 -6.469 -2.818)"><stop stop-color="#F0F3F5"/><stop offset=".056" stop-color="#E2E5E8"/><stop offset=".138" stop-color="#D4D8DD"/><stop offset=".242" stop-color="#CCD0D6"/><stop offset=".44" stop-color="#CACED4"/><stop offset=".568" stop-color="#B3B7BD"/><stop offset=".835" stop-color="#797C83"/><stop offset="1" stop-color="#52545C"/></linearGradient><linearGradient id="f" x2="1" gradientUnits="userSpaceOnUse" gradientTransform="matrix(0 21.665 21.665 0 -6.47 -2.818)"><stop stop-color="#F0F3F5"/><stop offset=".056" stop-color="#E2E5E8"/><stop offset=".138" stop-color="#D4D8DD"/><stop offset=".242" stop-color="#CCD0D6"/><stop offset=".44" stop-color="#CACED4"/><stop offset=".568" stop-color="#B3B7BD"/><stop offset=".835" stop-color="#797C83"/><stop offset="1" stop-color="#52545C"/></linearGradient><linearGradient id="g" x2="1" gradientUnits="userSpaceOnUse" gradientTransform="matrix(0 36.156 36.156 0 -13.451 -19.962)"><stop stop-color="#F0F3F5"/><stop offset=".056" stop-color="#E2E5E8"/><stop offset=".138" stop-color="#D4D8DD"/><stop offset=".242" stop-color="#CCD0D6"/><stop offset=".44" stop-color="#CACED4"/><stop offset=".568" stop-color="#B3B7BD"/><stop offset=".835" stop-color="#797C83"/><stop offset="1" stop-color="#52545C"/></linearGradient><linearGradient id="h" x2="1" gradientUnits="userSpaceOnUse" gradientTransform="matrix(0 36.156 36.156 0 -13.451 -19.963)"><stop stop-color="#F0F3F5"/><stop offset=".056" stop-color="#E2E5E8"/><stop offset=".138" stop-color="#D4D8DD"/><stop offset=".242" stop-color="#CCD0D6"/><stop offset=".44" stop-color="#CACED4"/><stop offset=".568" stop-color="#B3B7BD"/><stop offset=".835" stop-color="#797C83"/><stop offset="1" stop-color="#52545C"/></linearGradient><linearGradient id="i" x2="1" gradientUnits="userSpaceOnUse" gradientTransform="matrix(0 44.241 44.241 0 13.566 0)"><stop stop-color="#F0F3F5"/><stop offset=".253" stop-color="#EDF0F3"/><stop offset=".406" stop-color="#E5E8EA"/><stop offset=".531" stop-color="#D7DADC"/><stop offset=".642" stop-color="#C3C5C9"/><stop offset=".744" stop-color="#A9ABAF"/><stop offset=".839" stop-color="#888B90"/><stop offset=".926" stop-color="#63656B"/><stop offset="1" stop-color="#3D3F46"/></linearGradient><linearGradient id="j" x2="1" gradientUnits="userSpaceOnUse" gradientTransform="matrix(0 44.244 44.244 0 -13.738 -2.819)"><stop stop-color="#F0F3F5"/><stop offset=".253" stop-color="#EDF0F3"/><stop offset=".406" stop-color="#E5E8EA"/><stop offset=".531" stop-color="#D7DADC"/><stop offset=".642" stop-color="#C3C5C9"/><stop offset=".744" stop-color="#A9ABAF"/><stop offset=".839" stop-color="#888B90"/><stop offset=".926" stop-color="#63656B"/><stop offset="1" stop-color="#3D3F46"/></linearGradient><linearGradient id="k" x2="1" gradientUnits="userSpaceOnUse" gradientTransform="matrix(0 44.243 44.243 0 2.123 -.41)"><stop stop-color="#F0F3F5"/><stop offset=".253" stop-color="#EDF0F3"/><stop offset=".406" stop-color="#E5E8EA"/><stop offset=".531" stop-color="#D7DADC"/><stop offset=".642" stop-color="#C3C5C9"/><stop offset=".744" stop-color="#A9ABAF"/><stop offset=".839" stop-color="#888B90"/><stop offset=".926" stop-color="#63656B"/><stop offset="1" stop-color="#3D3F46"/></linearGradient><linearGradient id="l" x2="1" gradientUnits="userSpaceOnUse" gradientTransform="matrix(0 12.609 12.609 0 17.939 -1.428)"><stop stop-color="#CACED4"/><stop offset="1" stop-color="#52545C"/></linearGradient></defs></svg>