<svg xmlns="http://www.w3.org/2000/svg" width="65" height="65" fill="none"><path fill="#2F4698" fill-rule="evenodd" d="M32.5 65C50.47 65 65 50.46 65 32.5S50.46 0 32.5 0C14.58 0 0 14.54 0 32.5S14.57 65 32.5 65zm32.2-32.5c0 17.76-14.4 32.16-32.2 32.16C14.75 64.66.35 50.26.35 32.5.34 14.75 14.74.35 32.5.35c17.8 0 32.2 14.4 32.2 32.17z" clip-rule="evenodd"/><path fill="#2F4799" fill-rule="evenodd" d="M32.5 65C50.47 65 65 50.46 65 32.5S50.46 0 32.5 0C14.58 0 0 14.54 0 32.5S14.57 65 32.5 65zm31.27-32.5c0 17.27-14 31.24-31.26 31.24-17.24 0-31.24-13.97-31.24-31.23 0-17.24 14-31.24 31.25-31.24 17.27 0 31.27 14 31.27 31.25z" clip-rule="evenodd"/><path fill="#2F489A" fill-rule="evenodd" d="M64.7 32.5C64.7 14.75 50.3.35 32.5.35 14.75.34.35 14.74.35 32.5c0 17.76 14.4 32.16 32.17 32.16 17.8 0 32.2-14.4 32.2-32.15zm-1.85 0c0 16.76-13.6 30.33-30.34 30.33C15.78 62.83 2.2 49.26 2.2 32.5 2.18 15.75 15.78 2.2 32.5 2.2c16.76 0 30.35 13.56 30.35 30.33z" clip-rule="evenodd"/><path fill="#2E4A9B" fill-rule="evenodd" d="M63.77 32.5c0-17.24-14-31.24-31.26-31.24-17.25 0-31.24 14-31.24 31.25 0 17.27 14 31.24 31.25 31.24 17.27 0 31.27-13.97 31.27-31.23zm-1.83 0c0 16.24-13.17 29.4-29.43 29.4-16.24 0-29.4-13.16-29.4-29.4S16.25 3.1 32.5 3.1c16.27 0 29.44 13.16 29.44 29.4z" clip-rule="evenodd"/><path fill="#2E4B9C" fill-rule="evenodd" d="M62.85 32.5c0-16.76-13.6-30.32-30.34-30.32C15.78 2.18 2.2 15.74 2.2 32.5c0 16.76 13.6 30.33 30.33 30.33 16.76 0 30.35-13.57 30.35-30.32zm-1.83 0c0 15.73-12.76 28.5-28.5 28.5C16.76 61 4 48.22 4 32.5S16.76 4 32.5 4C48.25 4 61 16.78 61 32.5z" clip-rule="evenodd"/><path fill="#2E4C9C" fill-rule="evenodd" d="M61.94 32.52C61.94 16.26 48.77 3.1 32.5 3.1 16.27 3.1 3.1 16.25 3.1 32.5c0 16.22 13.16 29.4 29.4 29.4 16.27 0 29.44-13.18 29.44-29.4zm-1.83 0c0 15.22-12.36 27.56-27.6 27.56-15.2 0-27.58-12.34-27.58-27.56 0-15.23 12.37-27.6 27.6-27.6 15.22 0 27.6 12.37 27.6 27.6z" clip-rule="evenodd"/><path fill="#2D4E9D" fill-rule="evenodd" d="M61.02 32.5C61.02 16.78 48.26 4 32.52 4 16.76 4 4 16.78 4 32.5S16.76 61 32.5 61C48.25 61 61 48.22 61 32.5zm-1.86 0c0 14.72-11.93 26.66-26.65 26.66-14.7 0-26.63-11.94-26.63-26.65C5.87 17.78 17.8 5.85 32.5 5.85c14.73 0 26.66 11.93 26.66 26.67z" clip-rule="evenodd"/><path fill="#2D4F9E" fill-rule="evenodd" d="M60.1 32.5c0-15.2-12.36-27.58-27.6-27.58-15.2 0-27.58 12.37-27.58 27.6 0 15.22 12.37 27.56 27.6 27.56 15.22 0 27.6-12.34 27.6-27.57zm-1.85 0c0 14.2-11.5 25.74-25.74 25.74C18.3 58.24 6.8 46.7 6.8 32.5c0-14.2 11.5-25.75 25.73-25.75 14.24 0 25.75 11.54 25.75 25.76z" clip-rule="evenodd"/><path fill="#2D509F" fill-rule="evenodd" d="M59.16 32.5c0-14.73-11.93-26.66-26.65-26.66-14.7 0-26.63 11.93-26.63 26.67 0 14.72 11.93 26.66 26.64 26.66 14.73 0 26.66-11.94 26.66-26.65zm-1.83 0c0 13.7-11.1 24.83-24.82 24.83-13.7 0-24.8-11.14-24.8-24.82 0-13.7 11.1-24.8 24.8-24.8 13.72 0 24.83 11.1 24.83 24.8z" clip-rule="evenodd"/><path fill="#2C51A0" fill-rule="evenodd" d="M58.25 32.52c0-14.23-11.5-25.76-25.74-25.76C18.3 6.76 6.8 18.3 6.8 32.52c0 14.2 11.5 25.73 25.73 25.73 14.24 0 25.75-11.54 25.75-25.73zm-1.84 0c0 13.2-10.7 23.87-23.9 23.87-13.18 0-23.88-10.7-23.88-23.88 0-13.23 10.7-23.9 23.9-23.9s23.9 10.67 23.9 23.9z" clip-rule="evenodd"/><path fill="#2C53A0" fill-rule="evenodd" d="M57.33 32.5c0-13.7-11.1-24.8-24.82-24.8-13.7 0-24.8 11.1-24.8 24.8 0 13.7 11.1 24.83 24.8 24.83 13.72 0 24.83-11.13 24.83-24.82zm-1.83 0c0 12.7-10.3 22.97-23 22.97-12.66 0-22.97-10.28-22.97-22.96 0-12.7 10.3-22.97 22.98-22.97 12.7 0 23 10.28 23 22.98z" clip-rule="evenodd"/><path fill="#2C54A1" fill-rule="evenodd" d="M56.4 32.5c0-13.2-10.7-23.88-23.9-23.88-13.18 0-23.88 10.67-23.88 23.9 0 13.2 10.7 23.86 23.9 23.86S56.4 45.7 56.4 32.5zm-1.82 0c0 12.18-9.87 22.05-22.07 22.05-12.18 0-22.05-9.87-22.05-22.04 0-12.18 9.87-22.05 22.06-22.05 12.2 0 22.08 9.87 22.08 22.06z" clip-rule="evenodd"/><path fill="#2B55A2" fill-rule="evenodd" d="M55.5 32.5c0-12.7-10.3-22.97-23-22.97C19.85 9.53 9.54 19.8 9.54 32.5c0 12.7 10.3 22.97 22.98 22.97 12.7 0 23-10.28 23-22.96zm-1.83 0c0 11.7-9.48 21.14-21.16 21.14-11.66 0-21.14-9.45-21.14-21.13 0-11.66 9.48-21.14 21.15-21.14 11.7 0 21.17 9.48 21.17 21.15z" clip-rule="evenodd"/><path fill="#2B56A3" fill-rule="evenodd" d="M54.58 32.5c0-12.18-9.87-22.05-22.07-22.05-12.18 0-22.05 9.87-22.05 22.06 0 12.18 9.87 22.05 22.06 22.05 12.2 0 22.08-9.87 22.08-22.04zm-1.83 0c0 11.18-9.07 20.22-20.24 20.22-11.15 0-20.22-9.04-20.22-20.2 0-11.2 9.07-20.24 20.23-20.24 11.18 0 20.25 9.04 20.25 20.23z" clip-rule="evenodd"/><path fill="#2B57A4" fill-rule="evenodd" d="M53.67 32.5c0-11.66-9.48-21.14-21.16-21.14-11.66 0-21.14 9.48-21.14 21.15 0 11.7 9.48 21.14 21.15 21.14 11.7 0 21.17-9.45 21.17-21.13zm-1.86 0c0 10.66-8.64 19.3-19.3 19.3-10.63 0-19.28-8.64-19.28-19.3s8.65-19.3 19.3-19.3c10.64 0 19.3 8.64 19.3 19.3z" clip-rule="evenodd"/><path fill="#2A59A5" fill-rule="evenodd" d="M52.75 32.5c0-11.18-9.07-20.22-20.24-20.22-11.15 0-20.22 9.04-20.22 20.23 0 11.18 9.07 20.22 20.23 20.22 11.18 0 20.25-9.04 20.25-20.2zm-1.86 0c0 10.14-8.22 18.4-18.4 18.4-10.15 0-18.36-8.25-18.36-18.4 0-10.15 8.2-18.4 18.37-18.4 10.18 0 18.4 8.25 18.4 18.4z" clip-rule="evenodd"/><path fill="#2A5AA6" fill-rule="evenodd" d="M51.8 32.52c0-10.68-8.64-19.32-19.3-19.32-10.63 0-19.28 8.64-19.28 19.32 0 10.64 8.65 19.3 19.3 19.3 10.64 0 19.3-8.66 19.3-19.3zm-1.83 0c0 9.64-7.8 17.45-17.46 17.45-9.63 0-17.45-7.8-17.45-17.45 0-9.65 7.82-17.5 17.46-17.5 9.66 0 17.47 7.85 17.47 17.5z" clip-rule="evenodd"/><path fill="#295BA7" fill-rule="evenodd" d="M50.9 32.52c0-10.17-8.22-18.4-18.4-18.4-10.15 0-18.36 8.23-18.36 18.4 0 10.13 8.2 18.37 18.37 18.37 10.18 0 18.4-8.25 18.4-18.38zm-1.84 0c0 9.13-7.42 16.54-16.55 16.54-9.12 0-16.53-7.4-16.53-16.54 0-9.16 7.4-16.55 16.54-16.55 9.14 0 16.56 7.4 16.56 16.55z" clip-rule="evenodd"/><path fill="#295CA7" fill-rule="evenodd" d="M49.97 32.52c0-9.65-7.8-17.5-17.46-17.5-9.63 0-17.44 7.85-17.44 17.5 0 9.64 7.8 17.45 17.45 17.45 9.66 0 17.47-7.8 17.47-17.45zm-1.83 0c0 8.6-7 15.6-15.63 15.6-8.6 0-15.6-7-15.6-15.6 0-8.65 7-15.63 15.6-15.63 8.63 0 15.64 6.97 15.64 15.62z" clip-rule="evenodd"/><path fill="#295DA8" fill-rule="evenodd" d="M49.06 32.5c0-9.14-7.42-16.53-16.55-16.53-9.12 0-16.53 7.4-16.53 16.54 0 9.14 7.4 16.56 16.54 16.56 9.14 0 16.56-7.42 16.56-16.55zm-1.83 0c0 8.1-6.6 14.7-14.72 14.7-8.1 0-14.7-6.6-14.7-14.7s6.6-14.7 14.7-14.7c8.14 0 14.73 6.6 14.73 14.7z" clip-rule="evenodd"/><path fill="#285EA9" fill-rule="evenodd" d="M48.14 32.5c0-8.63-7-15.6-15.63-15.6-8.6 0-15.6 6.97-15.6 15.6 0 8.63 7 15.6 15.6 15.6 8.63 0 15.64-6.97 15.64-15.6zm-1.83 0c0 7.63-6.17 13.78-13.8 13.78-7.6 0-13.78-6.15-13.78-13.77 0-7.6 6.18-13.78 13.8-13.78 7.6 0 13.8 6.18 13.8 13.8z" clip-rule="evenodd"/><path fill="#2860AA" fill-rule="evenodd" d="M47.23 32.5c0-8.1-6.6-14.7-14.72-14.7-8.1 0-14.7 6.6-14.7 14.7s6.6 14.7 14.7 14.7c8.14 0 14.73-6.6 14.73-14.7zm-1.86 0c0 7.1-5.76 12.87-12.86 12.87-7.08 0-12.84-5.76-12.84-12.86s5.76-12.87 12.85-12.87c7.1 0 12.87 5.76 12.87 12.88z" clip-rule="evenodd"/><path fill="#2761AB" fill-rule="evenodd" d="M46.3 32.5c0-7.6-6.17-13.78-13.8-13.78-7.6 0-13.78 6.18-13.78 13.8 0 7.6 6.18 13.76 13.8 13.76 7.6 0 13.8-6.15 13.8-13.77zm-1.85 0c0 6.6-5.32 11.95-11.94 11.95-6.6 0-11.92-5.35-11.92-11.94 0-6.6 5.32-11.95 11.93-11.95 6.63 0 11.95 5.35 11.95 11.96z" clip-rule="evenodd"/><path fill="#2762AC" fill-rule="evenodd" d="M45.37 32.5c0-7.1-5.76-12.87-12.86-12.87-7.08 0-12.84 5.76-12.84 12.88 0 7.1 5.76 12.87 12.85 12.87 7.1 0 12.87-5.76 12.87-12.86zm-1.84 0c0 6.08-4.92 11.03-11.02 11.03-6.08 0-11-4.95-11-11.02 0-6.08 4.92-11.03 11-11.03 6.1 0 11.03 4.95 11.03 11.04z" clip-rule="evenodd"/><path fill="#2663AC" fill-rule="evenodd" d="M44.45 32.5c0-6.6-5.32-11.95-11.94-11.95-6.6 0-11.92 5.35-11.92 11.96 0 6.6 5.32 11.95 11.93 11.95 6.63 0 11.95-5.35 11.95-11.94zm-1.83 0c0 5.6-4.52 10.12-10.1 10.12-5.6 0-10.1-4.52-10.1-10.1 0-5.62 4.5-10.14 10.1-10.14 5.58 0 10.1 4.55 10.1 10.13z" clip-rule="evenodd"/><path fill="#2664AD" fill-rule="evenodd" d="M43.53 32.5c0-6.08-4.92-11.03-11.02-11.03-6.08 0-11 4.95-11 11.04 0 6.08 4.92 11.03 11 11.03 6.1 0 11.03-4.95 11.03-11.02zm-1.83 0c0 5.08-4.12 9.2-9.2 9.2-5.05 0-9.17-4.12-9.17-9.2 0-5.08 4.12-9.2 9.18-9.2 5.08 0 9.2 4.12 9.2 9.2z" clip-rule="evenodd"/><path fill="#2565AE" fill-rule="evenodd" d="M42.62 32.5c0-5.6-4.52-10.12-10.1-10.12-5.6 0-10.1 4.55-10.1 10.13 0 5.6 4.5 10.12 10.1 10.12 5.58 0 10.1-4.52 10.1-10.1zm-1.83 0c0 4.57-3.7 8.3-8.3 8.3-4.57 0-8.26-3.73-8.26-8.3 0-4.56 3.7-8.26 8.27-8.26 4.6 0 8.3 3.7 8.3 8.27z" clip-rule="evenodd"/><path fill="#2566AF" fill-rule="evenodd" d="M41.7 32.5c0-5.08-4.12-9.2-9.2-9.2-5.05 0-9.17 4.12-9.17 9.2 0 5.08 4.12 9.2 9.18 9.2 5.08 0 9.2-4.12 9.2-9.2zm-1.83 0c0 4.05-3.3 7.34-7.36 7.34-4.05 0-7.34-3.3-7.34-7.33 0-4.05 3.3-7.34 7.35-7.34 4.08 0 7.37 3.3 7.37 7.35z" clip-rule="evenodd"/><path fill="#2467B0" fill-rule="evenodd" d="M40.8 32.52c0-1.1-.22-2.17-.64-3.17-.4-1-1.02-1.92-1.8-2.7-.76-.76-1.67-1.37-2.68-1.78-1-.42-2.08-.63-3.17-.63-4.57 0-8.26 3.7-8.26 8.28 0 4.55 3.7 8.27 8.27 8.27 4.6 0 8.3-3.73 8.3-8.28zm-1.85 0c0 3.55-2.9 6.4-6.44 6.4-3.53 0-6.43-2.85-6.43-6.4 0-3.58 2.9-6.44 6.44-6.44 3.56 0 6.45 2.86 6.45 6.44z" clip-rule="evenodd"/><path fill="#2468B1" fill-rule="evenodd" d="M39.87 32.52c0-4.07-3.3-7.36-7.36-7.36-4.05 0-7.34 3.3-7.34 7.36 0 4.03 3.3 7.32 7.35 7.32 4.08 0 7.37-3.3 7.37-7.32zm-1.86 0c0 3.03-2.45 5.5-5.5 5.5-3.02 0-5.48-2.47-5.48-5.5 0-3.07 2.46-5.53 5.5-5.53 3.03 0 5.5 2.45 5.5 5.52z" clip-rule="evenodd"/><path fill="#2369B2" fill-rule="evenodd" d="M38.95 32.5c0-3.56-2.9-6.43-6.44-6.43-3.53 0-6.43 2.87-6.43 6.44 0 3.56 2.9 6.43 6.44 6.43 3.56 0 6.45-2.87 6.45-6.42zm-1.86 0c0 2.53-2.04 4.6-4.6 4.6-2.53 0-4.57-2.07-4.57-4.6s2.04-4.6 4.58-4.6c2.56 0 4.6 2.07 4.6 4.6z" clip-rule="evenodd"/><path fill="#236BB3" fill-rule="evenodd" d="M38 32.5c0-3.05-2.45-5.5-5.5-5.5-3.02 0-5.48 2.45-5.48 5.5s2.46 5.5 5.5 5.5c3.03 0 5.5-2.45 5.5-5.5zm-1.82 0c0 2.02-1.63 3.68-3.67 3.68-2.02 0-3.65-1.66-3.65-3.67 0-2.02 1.63-3.68 3.66-3.68 2.05 0 3.68 1.66 3.68 3.7z" clip-rule="evenodd"/><path fill="#226CB4" fill-rule="evenodd" d="M37.1 32.5c0-2.53-2.04-4.6-4.6-4.6-2.53 0-4.57 2.07-4.57 4.6s2.04 4.6 4.58 4.6c2.56 0 4.6-2.07 4.6-4.6zm-1.84 0c0 .74-.3 1.44-.8 1.96-.52.5-1.22.8-1.95.8-.7 0-1.4-.3-1.93-.8-.5-.52-.8-1.22-.8-1.95 0-1.53 1.23-2.76 2.74-2.76 1.53 0 2.76 1.23 2.76 2.77z" clip-rule="evenodd"/><path fill="#216DB4" fill-rule="evenodd" d="M36.18 32.5c0-2.02-1.63-3.68-3.67-3.68-2.02 0-3.65 1.66-3.65 3.7 0 2 1.63 3.66 3.66 3.66 2.05 0 3.68-1.66 3.68-3.67zm-1.83 0c0 1.02-.83 1.85-1.84 1.85-1 0-1.82-.83-1.82-1.84 0-1.02.83-1.85 1.83-1.85 1.02 0 1.85.83 1.85 1.86z" clip-rule="evenodd"/><path fill="#216EB5" fill-rule="evenodd" d="M35.26 32.5c0-1.53-1.23-2.76-2.75-2.76-1.5 0-2.73 1.23-2.73 2.77 0 .74.3 1.42.82 1.93.5.5 1.2.8 1.9.8.74 0 1.43-.3 1.94-.8.5-.5.8-1.2.82-1.92z" clip-rule="evenodd"/><path fill="#206FB6" fill-rule="evenodd" d="M34.35 32.5c0-1.02-.83-1.85-1.84-1.85-1 0-1.82.83-1.82 1.86 0 1.02.83 1.85 1.83 1.85 1.02 0 1.85-.83 1.85-1.84z" clip-rule="evenodd"/><path fill="#1E71B8" fill-rule="evenodd" d="M33.43 32.5c0-.5-.4-.93-.92-.93-.5 0-.9.43-.9.94 0 .5.4.93.9.93.53 0 .93-.43.93-.92z" clip-rule="evenodd"/><path fill="#33348E" fill-rule="evenodd" d="M15.8 50.52c2.03 2.03 4.4 3.75 7.04 4.98L15.8 39.35 9.9 25.9c-.74 2.35-1.14 4.87-1.14 7.47 0 6.67 2.7 12.74 7.04 17.15zm34.72 6.24c7.15-5.3 11.8-13.8 11.8-23.4 0-9.58-4.65-18.08-11.8-23.4-4.84-3.6-10.85-5.72-17.38-5.72-6.5 0-12.47 2.1-17.34 5.72C8.64 15.28 4 23.8 4 33.36c0 9.6 4.64 18.1 11.8 23.4 4.87 3.6 10.85 5.75 17.34 5.75 6.53 0 12.54-2.14 17.38-5.74zm0-40.53c.86.86 1.7 1.8 2.4 2.8l-2.4 5.5L41.6 45.1 36.9 34.56H29.4L24.75 45.1 15.8 24.54l-2.4-5.5c.74-1 1.54-1.94 2.4-2.8 1.5-1.52 3.15-2.84 4.98-3.9l8.5 19.73h7.76l8.5-19.72c1.83 1.05 3.5 2.37 4.98 3.9zm0 23.12l5.9-13.45c.74 2.35 1.17 4.87 1.17 7.47 0 6.67-2.7 12.74-7.08 17.15-2 2.03-4.4 3.75-7.04 4.98l7.04-16.15zm-17.38 1.9l6.84 15.54c-2.17.64-4.46.96-6.84.96-2.34 0-4.63-.32-6.8-.97l6.8-15.56zm0-15.26l7.04-16c-2.23-.67-4.57-1.04-7.04-1.04-2.43 0-4.78.37-7 1.03l7 16z" clip-rule="evenodd"/><path fill="#fff" fill-rule="evenodd" d="M15.14 49.66c2.05 2.04 4.43 3.73 7.04 4.98L15.14 38.5 9.27 25.04C8.5 27.4 8.1 29.9 8.1 32.5c0 6.68 2.7 12.75 7.04 17.16zM49.9 55.9c7.1-5.3 11.75-13.8 11.75-23.4 0-9.58-4.64-18.08-11.76-23.4C45 5.5 39 3.35 32.5 3.35 26.03 3.35 20 5.5 15.15 9.1 8 14.42 3.38 22.92 3.38 32.5c0 9.6 4.63 18.1 11.76 23.4 4.87 3.6 10.88 5.75 17.37 5.75 6.5 0 12.52-2.15 17.4-5.75zm0-40.53c.85.87 1.65 1.8 2.36 2.8l-2.37 5.5-8.97 20.58L36.3 33.7h-7.56L24.1 44.24l-8.96-20.58-2.37-5.5c.7-1 1.5-1.93 2.37-2.8 1.5-1.52 3.17-2.83 5-3.9l8.48 19.73h7.8l8.46-19.72c1.84 1.06 3.52 2.37 5 3.9zm0 23.13l5.85-13.46c.78 2.35 1.18 4.87 1.18 7.47 0 6.68-2.7 12.75-7.04 17.16-2.06 2.04-4.44 3.73-7.05 4.98L49.9 38.5zm-17.4 1.88l6.83 15.55c-2.22.64-4.5.97-6.82.97-2.3 0-4.58-.33-6.8-.97l6.8-15.55zm0-15.28l7.03-15.97c-2.2-.7-4.58-1.03-7.02-1.03-2.42 0-4.77.34-7 1.03l7 15.97z" clip-rule="evenodd"/></svg>